<svg xmlns="http://www.w3.org/2000/svg" xmlns:xlink="http://www.w3.org/1999/xlink" viewBox="0,0,256,256" width="64px" height="64px"><g fill="none" fill-rule="nonzero" stroke="none" stroke-width="1" stroke-linecap="butt" stroke-linejoin="miter" stroke-miterlimit="10" stroke-dasharray="" stroke-dashoffset="0" font-family="none" font-weight="none" font-size="none" text-anchor="none" style="mix-blend-mode: normal"><g transform="scale(4,4)"><g><path d="M6,57l13,-3l10,7v-31l-11,-2z" fill="#5e98d1"></path><path d="M21.8,42.58c0.10051,5.71703 2.73905,11.09306 7.2,14.67v3.75l-10,-7l-13,3l12,-29l11,2v14.28c-0.235,-0.17685 -0.44083,-0.38942 -0.61,-0.63c-0.88447,-1.26579 -2.55064,-1.71291 -3.95,-1.06c-0.83928,0.38217 -1.80364,0.37851 -2.64,-0.01z" fill="#2d9ae0"></path><path d="M58,57l-13,-3l-10,7v-31l11,-2z" fill="#5e98d1"></path><path d="M38.3,29.4l2.434,27.586l4.266,-2.986l6.139,1.417l-8.91,-26.731z" fill="#a3daff"></path><path d="M25.7,29.4l-2.434,27.586l-4.266,-2.986l-6.139,1.417l8.91,-26.731z" fill="#a3daff"></path><path d="M58,57l-13,-3l-10,7v-31l11,-2l1.29,3.13v0.09c0.00144,0.46316 0.10382,0.92044 0.3,1.34c0.19415,0.42025 0.29643,0.87708 0.3,1.34c-0.00353,1.65232 -1.26448,3.03026 -2.91,3.18c-1.31802,0.11135 -2.42926,1.02743 -2.79,2.3c1.7571,7.18029 7.36092,12.78797 14.54,14.55z" fill="#2d9ae0"></path><path d="M51.14,55.42l-6.14,-1.42l-4.27,2.99l-2.43,-27.59l3.93,-0.71l2.79,8.38c-0.01173,0.00795 -0.0259,0.0115 -0.04,0.01c-1.31802,0.11135 -2.42926,1.02743 -2.79,2.3c1.08661,4.43374 3.66827,8.35744 7.31,11.11z" fill="#1ec0ff"></path><path d="M25.7,29.4l-1.16,13.15c-0.03492,0.00897 -0.06853,0.02241 -0.1,0.04c-0.83928,0.38217 -1.80364,0.37851 -2.64,-0.01c0.05642,2.85779 0.74274,5.66793 2.01,8.23l-0.54,6.18l-4.27,-2.99l-6.14,1.42l8.91,-26.73z" fill="#1ec0ff"></path><path d="M34.61,4.354v0c0.88868,1.26114 2.55179,1.7068 3.952,1.059v0c0.9427,-0.43609 2.03859,-0.38655 2.9381,0.13283c0.89951,0.51938 1.49029,1.44371 1.5839,2.47817v0c0.13832,1.53627 1.35573,2.75368 2.892,2.892v0c1.03446,0.09361 1.9588,0.68439 2.47817,1.5839c0.51938,0.89951 0.56892,1.99539 0.13283,2.9381v0c-0.64822,1.40017 -0.20249,3.06356 1.059,3.952v0c0.84876,0.59814 1.35367,1.57165 1.35367,2.61c0,1.03835 -0.5049,2.01186 -1.35367,2.61v0c-1.26149,0.88844 -1.70722,2.55183 -1.059,3.952v0c0.43609,0.9427 0.38655,2.03859 -0.13283,2.9381c-0.51938,0.89951 -1.44371,1.49029 -2.47817,1.5839v0c-1.53627,0.13832 -2.75368,1.35573 -2.892,2.892v0c-0.09361,1.03446 -0.68439,1.9588 -1.5839,2.47817c-0.89951,0.51938 -1.99539,0.56892 -2.9381,0.13283v0c-1.40021,-0.6478 -3.06332,-0.20214 -3.952,1.059v0c-0.59837,0.84877 -1.57202,1.35364 -2.6105,1.35364c-1.03848,0 -2.01213,-0.50487 -2.6105,-1.35364v0c-0.88809,-1.26134 -2.55113,-1.70709 -3.951,-1.059v0c-0.9427,0.43609 -2.03859,0.38655 -2.9381,-0.13283c-0.89951,-0.51938 -1.49029,-1.44371 -1.5839,-2.47817v0c-0.13839,-1.53662 -1.35634,-2.75414 -2.893,-2.892v0c-1.03428,-0.09391 -1.95833,-0.68481 -2.47748,-1.58427c-0.51915,-0.89946 -0.56858,-1.99517 -0.13252,-2.93773v0c0.6478,-1.40021 0.20214,-3.06332 -1.059,-3.952v0c-0.84876,-0.59814 -1.35367,-1.57165 -1.35367,-2.61c0,-1.03835 0.5049,-2.01186 1.35367,-2.61v0c1.26114,-0.88868 1.7068,-2.55179 1.059,-3.952v0c-0.43606,-0.94255 -0.38663,-2.03827 0.13252,-2.93773c0.51915,-0.89946 1.4432,-1.49036 2.47748,-1.58427v0c1.53666,-0.13786 2.75461,-1.35538 2.893,-2.892v0c0.09361,-1.03446 0.68439,-1.9588 1.5839,-2.47817c0.89951,-0.51938 1.99539,-0.56892 2.9381,-0.13283v0c1.39987,0.64809 3.06291,0.20234 3.951,-1.059v0c0.59837,-0.84877 1.57202,-1.35364 2.6105,-1.35364c1.03848,0 2.01213,0.50487 2.6105,1.35364z" fill="#99f0ff"></path><path d="M48.89,29.9c-0.00353,1.65232 -1.26448,3.03026 -2.91,3.18c-1.54416,0.13091 -2.76909,1.35584 -2.9,2.9c-0.14974,1.64552 -1.52768,2.90647 -3.18,2.91c-0.46292,-0.00357 -0.91975,-0.10585 -1.34,-0.3c-1.3991,-0.65595 -3.06728,-0.20828 -3.95,1.06c-0.60006,0.84591 -1.57287,1.34854 -2.61,1.34854c-1.03713,0 -2.00994,-0.50263 -2.61,-1.34854c-0.88272,-1.26828 -2.5509,-1.71595 -3.95,-1.06c-0.42025,0.19415 -0.87708,0.29643 -1.34,0.3c-1.65232,-0.00353 -3.03026,-1.26448 -3.18,-2.91c-0.13091,-1.54416 -1.35584,-2.76909 -2.9,-2.9c-1.64552,-0.14974 -2.90647,-1.52768 -2.91,-3.18c0.00357,-0.46292 0.10585,-0.91975 0.3,-1.34c0.65595,-1.3991 0.20828,-3.06728 -1.06,-3.95c-0.84591,-0.60006 -1.34854,-1.57287 -1.34854,-2.61c0,-1.03713 0.50263,-2.00994 1.34854,-2.61c1.26828,-0.88272 1.71595,-2.5509 1.06,-3.95c-0.19415,-0.42025 -0.29643,-0.87708 -0.3,-1.34c0.00353,-1.65232 1.26448,-3.03026 2.91,-3.18c1.54416,-0.13091 2.76909,-1.35584 2.9,-2.9c0.14096,-1.55081 1.37782,-2.775 2.93,-2.9c-1.72373,5.32538 -0.79493,11.15405 2.4986,15.67993c3.29353,4.52588 8.55401,7.20235 14.1514,7.20007c2.78825,0.00603 5.53652,-0.66303 8.01,-1.95c-0.14308,0.3736 -0.21761,0.76994 -0.22,1.17c0.00144,0.46316 0.10382,0.92044 0.3,1.34c0.19415,0.42025 0.29643,0.87708 0.3,1.34z" fill="#5ee8ff"></path><circle cx="32" cy="22" r="14" fill="#5e98d1"></circle><path d="M44.9,27.43c-2.24431,5.3584 -7.56469,8.77402 -13.37101,8.584c-5.80631,-0.19001 -10.892,-3.94617 -12.78117,-9.43984c-1.88917,-5.49367 -0.18925,-11.58327 4.27218,-15.30416c0.41504,9.35392 8.11688,16.7253 17.48,16.73c1.48542,0.00536 2.96498,-0.18632 4.4,-0.57z" fill="#2d9ae0"></path><circle cx="32" cy="22" r="10" fill="#99f0ff"></circle><path d="M40,27.99c-2.58148,3.44198 -7.07518,4.84694 -11.15754,3.48842c-4.08236,-1.35852 -6.83816,-5.17596 -6.84246,-9.47842c-0.00574,-2.11963 0.67096,-4.18481 1.93,-5.89c2.34485,6.93121 8.7559,11.67067 16.07,11.88z" fill="#5ee8ff"></path><path d="M32,15.587l1.854,3.757l4.146,0.603l-3,2.924l0.708,4.129l-3.708,-1.949l-3.708,1.949l0.708,-4.129l-3,-2.924l4.146,-0.603z" fill="#ffd700"></path><path d="M31.33,25.4l-3.04,1.6l0.59,-3.43c0.76185,0.68014 1.58163,1.29246 2.45,1.83z" fill="#99f0ff"></path><path d="M53,6h-1v-1c0,-0.55228 -0.44772,-1 -1,-1c-0.55228,0 -1,0.44772 -1,1v1h-1c-0.55228,0 -1,0.44772 -1,1c0,0.55228 0.44772,1 1,1h1v1c0,0.55228 0.44772,1 1,1c0.55228,0 1,-0.44772 1,-1v-1h1c0.55228,0 1,-0.44772 1,-1c0,-0.55228 -0.44772,-1 -1,-1z" fill="#ffd700"></path><path d="M59,21h-1v-1c0,-0.55228 -0.44772,-1 -1,-1c-0.55228,0 -1,0.44772 -1,1v1h-1c-0.55228,0 -1,0.44772 -1,1c0,0.55228 0.44772,1 1,1h1v1c0,0.55228 0.44772,1 1,1c0.55228,0 1,-0.44772 1,-1v-1h1c0.55228,0 1,-0.44772 1,-1c0,-0.55228 -0.44772,-1 -1,-1z" fill="#ffd700"></path><circle cx="60" cy="6" r="1" fill="#ffd700"></circle><circle cx="55" cy="14" r="1" fill="#ffd700"></circle><path d="M4,7h1v1c0,0.55228 0.44772,1 1,1c0.55228,0 1,-0.44772 1,-1v-1h1c0.55228,0 1,-0.44772 1,-1c0,-0.55228 -0.44772,-1 -1,-1h-1v-1c0,-0.55228 -0.44772,-1 -1,-1c-0.55228,0 -1,0.44772 -1,1v1h-1c-0.55228,0 -1,0.44772 -1,1c0,0.55228 0.44772,1 1,1z" fill="#ffd700"></path><path d="M8,22h-1v-1c0,-0.55228 -0.44772,-1 -1,-1c-0.55228,0 -1,0.44772 -1,1v1h-1c-0.55228,0 -1,0.44772 -1,1c0,0.55228 0.44772,1 1,1h1v1c0,0.55228 0.44772,1 1,1c0.55228,0 1,-0.44772 1,-1v-1h1c0.55228,0 1,-0.44772 1,-1c0,-0.55228 -0.44772,-1 -1,-1z" fill="#ffd700"></path><circle cx="15" cy="7" r="1" fill="#ffd700"></circle><circle cx="9" cy="15" r="1" fill="#ffd700"></circle><circle cx="11" cy="29" r="1" fill="#ffd700"></circle></g></g></g></svg>