<svg xmlns="http://www.w3.org/2000/svg" xmlns:xlink="http://www.w3.org/1999/xlink" viewBox="0,0,256,256" width="64px" height="64px"><g fill="none" fill-rule="nonzero" stroke="none" stroke-width="none" stroke-linecap="none" stroke-linejoin="miter" stroke-miterlimit="10" stroke-dasharray="" stroke-dashoffset="0" font-family="none" font-weight="none" font-size="none" text-anchor="none" style="mix-blend-mode: normal"><g transform="scale(4,4)"><path d="M40.649,56.657l-8.649,-4.657l-8.649,4.657c-1.967,1.059 -4.351,-0.365 -4.351,-2.598v-17.059h26v17.059c0,2.233 -2.384,3.657 -4.351,2.598z" fill-opacity="0.47059" fill="#8b8b8b" stroke="none" stroke-width="1" stroke-linecap="butt"></path><path d="M54,26c0,1.876 -2.306,3.424 -2.769,5.154c-0.479,1.79 0.731,4.281 -0.176,5.848c-0.92,1.59 -3.69,1.782 -4.981,3.072c-1.29,1.29 -1.483,4.06 -3.072,4.98c-1.567,0.907 -4.058,-0.302 -5.848,0.176c-1.73,0.464 -3.278,2.77 -5.154,2.77c-1.876,0 -3.424,-2.306 -5.154,-2.769c-1.79,-0.479 -4.281,0.731 -5.848,-0.176c-1.59,-0.92 -1.782,-3.69 -3.072,-4.981c-1.29,-1.29 -4.06,-1.483 -4.98,-3.072c-0.907,-1.567 0.302,-4.058 -0.176,-5.848c-0.464,-1.73 -2.77,-3.278 -2.77,-5.154c0,-1.876 2.306,-3.424 2.769,-5.154c0.479,-1.79 -0.731,-4.281 0.176,-5.848c0.92,-1.59 3.69,-1.782 4.981,-3.072c1.29,-1.29 1.483,-4.06 3.072,-4.98c1.567,-0.907 4.058,0.302 5.848,-0.176c1.73,-0.464 3.278,-2.77 5.154,-2.77c1.876,0 3.424,2.306 5.154,2.769c1.79,0.479 4.281,-0.731 5.848,0.176c1.59,0.92 1.782,3.69 3.072,4.981c1.29,1.29 4.06,1.483 4.98,3.072c0.907,1.567 -0.302,4.058 0.176,5.848c0.464,1.73 2.77,3.278 2.77,5.154z" fill="#09d77e" stroke="none" stroke-width="1" stroke-linecap="butt"></path><path d="M28.785,11.354c2.262,-0.955 3.544,-3.437 2.892,-5.877c-0.126,-0.472 -0.334,-0.896 -0.575,-1.293c-1.489,0.54 -2.81,2.198 -4.256,2.585c-1.79,0.479 -4.281,-0.731 -5.848,0.176c-1.59,0.92 -1.782,3.69 -3.072,4.98c-1.29,1.29 -4.061,1.483 -4.981,3.072c-0.907,1.567 0.302,4.058 -0.176,5.848c-0.386,1.446 -2.044,2.767 -2.584,4.255c0.397,0.241 0.821,0.449 1.293,0.575c0.433,0.115 0.867,0.171 1.294,0.171c1.946,0 3.744,-1.147 4.553,-2.948c1.21,-5.755 5.72,-10.289 11.46,-11.544z" fill="#ffffff" stroke="none" stroke-width="1" stroke-linecap="butt" opacity="0.3"></path><path d="M51.231,31.154c0.463,-1.73 2.769,-3.278 2.769,-5.154c0,-1.876 -2.306,-3.424 -2.769,-5.154c-0.398,-1.488 0.355,-3.453 0.105,-4.976c-0.461,-0.01 -0.928,0.021 -1.396,0.146c-2.433,0.651 -3.944,2.988 -3.654,5.418c0.461,1.44 0.714,2.973 0.714,4.566c0,7.18 -5.047,13.173 -11.785,14.646c-2.262,0.955 -3.544,3.437 -2.892,5.877c0.126,0.472 0.334,0.896 0.575,1.293c1.489,-0.54 2.81,-2.198 4.256,-2.584c1.79,-0.478 4.281,0.731 5.848,-0.176c1.59,-0.92 1.782,-3.69 3.072,-4.98c1.29,-1.29 4.061,-1.482 4.981,-3.072c0.907,-1.569 -0.302,-4.06 0.176,-5.85z" fill="#ffffff" stroke="none" stroke-width="1" stroke-linecap="butt" opacity="0.15"></path><circle cx="32" cy="26" r="15" fill="#a8ffd9" stroke="none" stroke-width="1" stroke-linecap="butt"></circle><circle cx="32" cy="26" r="10" fill="#09d77e" stroke="none" stroke-width="1" stroke-linecap="butt"></circle><path d="M17.978,20.66c0.503,-1.319 1.186,-2.549 2.02,-3.659c0.854,-1.137 1.866,-2.149 3.003,-3.003c1.096,-0.823 2.308,-1.499 3.607,-2" fill="none" stroke="#ffffff" stroke-width="3" stroke-linecap="round"></path><ellipse cx="32" cy="61" rx="11" ry="3" fill="#ffffff" stroke="none" stroke-width="1" stroke-linecap="butt" opacity="0.3"></ellipse></g></g></svg>