<svg xmlns="http://www.w3.org/2000/svg"  viewBox="0 0 48 48" width="100px" height="100px"><path fill="#c56528" d="M36.061,9.818c-0.253-0.56-0.736-1.046-1.339-1.164c-0.578-0.113-1.172,0.121-1.666,0.442 c-0.458,0.297-0.865,0.673-1.198,1.105l4.212,1.812C36.374,11.324,36.371,10.505,36.061,9.818z"/><path fill="#73a1b2" d="M12.743,26.674c0,0,1.277-10.954,10.074-16.355c4.279-0.201,7.456-0.798,11.971,1.251 c4.514,2.049,8.962,5.163,8.962,5.163s3.38,6.527,3.588,11.471c0.208,4.944-1.852,7.524-1.852,7.524s-8.113-3.529-13.87-4.38 c-2.879-1.243-11.215-4.912-13.088-5.089S12.743,26.674,12.743,26.674z"/><path fill="#c56528" d="M6.964,28.038c0,0,7.324-2.393,10.949-1.885s9.638,3.812,12.262,4.677 c2.624,0.865,7.285,2.004,7.285,2.004s-4.45,5.865-11.254,6.062c-6.804,0.197-12.503-7.36-13.318-7.987S9.095,27.932,6.964,28.038z"/><path fill="#513620" d="M6.573,28.215c-4.269,0.671-4.705,1.75-5.665,3.217c-0.96,1.467-0.452,3.401,1.541,4.048 s5.148-0.091,6.857-0.725s4.015-1.764,4.461-2.529C14.211,31.459,9.137,27.631,6.573,28.215z"/><path fill="#010101" d="M46.87,23.188c-0.439-1.478-0.936-2.963-1.474-4.417c-0.321-0.867-0.661-1.701-1.278-2.375 c-0.756-0.824-1.769-1.239-2.748-1.642c-0.342-0.14-0.683-0.279-1.011-0.437c-0.861-0.415-1.64-0.96-2.463-1.538 c-0.414-0.29-0.839-0.582-1.275-0.862c0.244-0.749,0.22-1.587-0.104-2.304c-0.346-0.769-0.98-1.311-1.698-1.449 c-0.621-0.122-1.328,0.054-2.035,0.513c-0.509,0.331-0.954,0.741-1.322,1.22c-0.029,0.038-0.044,0.081-0.06,0.123 c-1.065-0.169-2.142-0.264-3.196-0.337c-1.97-0.137-3.888-0.205-5.683,0.456c-1.672,0.614-3.197,1.843-4.803,3.865 c-2.818,3.552-4.703,7.789-5.455,12.26c-1.166,0.248-2.396,0.551-3.591,0.845c-1.006,0.247-2.024,0.49-3.017,0.711 c-0.269,0.044-0.532,0.106-0.795,0.176c-0.07,0.015-0.146,0.034-0.216,0.048c-0.026,0.005-0.046,0.021-0.07,0.03 C3.38,28.44,2.265,29.071,1.377,29.97c-1.014,1.026-1.914,2.772-1.114,4.317c0.243,0.467,0.632,0.878,1.156,1.221 c1.578,1.029,3.701,1.1,6.496,0.211l0.56-0.176c1.95-0.61,3.96-1.238,5.396-2.693c0.109,0.126,0.22,0.252,0.331,0.378 c1.054,1.205,2.145,2.451,3.47,3.399c1.339,0.958,2.98,1.669,5.167,2.238c0.935,0.242,2.173,0.521,3.467,0.529 c0.02,0,0.038,0,0.058,0c2.142,0,4.437-0.74,6.821-2.2c1.7-1.043,3.256-2.307,4.623-3.757c1.869,0.479,3.646,1.048,5.286,1.996 l0.156,0.092c0.424,0.248,0.862,0.504,1.391,0.604c0.203,0.038,0.385,0.055,0.549,0.055c0.743,0,1.112-0.346,1.295-0.671 c0.051-0.09,0.072-0.193,0.062-0.296c-0.1-0.976,0.221-1.889,0.561-2.855c0.175-0.496,0.354-1.008,0.485-1.549 C48.202,28.289,47.605,25.656,46.87,23.188z M39.926,15.219c0.346,0.166,0.705,0.313,1.064,0.461 c0.724,0.296,1.41,0.585,1.966,1.015l1.016,5.782c0.43,2.448,0.966,5.496-0.07,8.051c-0.445,1.095-1.172,2.09-1.875,3.052 c-0.039,0.053-0.064,0.112-0.079,0.172c-1.951-0.842-4.039-1.334-6.074-1.81c-0.625-0.146-1.259-0.299-1.891-0.458 c1.219-2.904,2.502-6.335,2.89-9.897c0.371-3.401-0.148-6.624-1.466-9.22c0.65,0.366,1.271,0.781,1.915,1.232 C38.143,14.174,38.991,14.769,39.926,15.219z M33.327,9.516c0.338-0.219,0.837-0.463,1.3-0.37c0.394,0.076,0.769,0.413,0.979,0.879 c0.193,0.428,0.237,0.921,0.136,1.381c-0.095-0.052-0.183-0.114-0.279-0.163c-0.937-0.473-1.934-0.788-2.955-1.014 C32.753,9.961,33.02,9.715,33.327,9.516z M18.503,14.625c1.486-1.872,2.873-2.999,4.365-3.549c1.607-0.591,3.408-0.524,5.269-0.396 c2.009,0.138,3.963,0.332,5.75,0.98c0.011,0.062,0.034,0.123,0.07,0.18c1.639,2.559,2.321,5.981,1.922,9.638 c-0.38,3.484-1.662,6.878-2.869,9.74c-0.583-0.16-1.167-0.32-1.731-0.514c-1.602-0.553-3.172-1.3-4.69-2.022 c-0.865-0.412-1.73-0.824-2.609-1.206c-1.832-0.796-4.537-1.821-7.375-1.821c-0.201,0-0.402,0.006-0.604,0.017 c-0.91,0.048-1.807,0.205-2.682,0.378C14.083,21.884,15.87,17.943,18.503,14.625z M16.053,26.668 c2.191-0.108,4.517,0.416,7.528,1.725c0.868,0.377,1.724,0.784,2.578,1.191c1.543,0.734,3.139,1.493,4.794,2.064 c0.732,0.252,1.48,0.468,2.231,0.666c-1.449,1.662-3.07,3.364-5.264,3.907c-2.878,0.712-5.757-0.81-7.93-2.562 c-1.516-1.223-2.835-2.668-4.288-3.962c-0.914-0.813-1.805-1.795-2.812-2.542c0.016-0.003,0.033-0.008,0.049-0.011 C13.96,26.938,15.016,26.723,16.053,26.668z M8.177,34.588l-0.564,0.178c-2.491,0.793-4.336,0.76-5.646-0.096 c-0.379-0.247-0.653-0.531-0.814-0.843c-0.519-1,0.098-2.305,0.937-3.154c0.789-0.797,1.802-1.366,2.893-1.679 c0.256-0.053,0.525-0.116,0.787-0.175c0.396-0.067,0.797-0.107,1.198-0.107c0.878,0,1.751,0.164,2.55,0.507 c1.445,0.618,2.583,1.679,3.686,2.884C11.933,33.413,10.025,34.01,8.177,34.588z M32.662,36.341 c-2.246,1.375-4.351,2.101-6.351,2.054c-1.184-0.007-2.343-0.27-3.221-0.497c-2.064-0.538-3.602-1.199-4.837-2.083 c-1.231-0.881-2.283-2.083-3.3-3.245c-0.23-0.264-0.462-0.528-0.697-0.791c-0.006-0.008-0.013-0.016-0.021-0.023 c-1.239-1.384-2.576-2.706-4.325-3.456c-0.259-0.111-0.529-0.189-0.798-0.268c0.798-0.196,1.598-0.386,2.391-0.568 c2.189,1.157,4.139,3.568,5.917,5.236c1.691,1.587,3.469,3.128,5.653,3.996c4.738,1.883,8.172-0.66,11.192-4.108 c0.463,0.112,0.925,0.222,1.382,0.328c0.344,0.081,0.686,0.161,1.026,0.241C35.465,34.37,34.123,35.446,32.662,36.341z M46.619,30.578c-0.118,0.491-0.29,0.979-0.456,1.451c-0.34,0.967-0.69,1.965-0.629,3.076c-0.172,0.116-0.506,0.079-0.709,0.041 c-0.357-0.067-0.703-0.27-1.069-0.484l-0.162-0.094c-0.248-0.144-0.502-0.275-0.757-0.403c0.738-1.01,1.502-2.053,1.991-3.262 c1.145-2.821,0.582-6.025,0.129-8.601l-0.611-3.478c0.038,0.098,0.076,0.194,0.113,0.294c0.53,1.433,1.02,2.898,1.452,4.354 C46.607,25.808,47.174,28.284,46.619,30.578z"/><path fill="#010101" d="M23.171,15.74c-1.285,1.641-2.118,3.437-2.536,5.45c-0.536-0.445-0.907-1.025-1.206-1.658 c0.546-1.303,1.23-2.534,2.188-3.559c0.357-0.339,0.716-0.676,1.097-0.996c0.429-0.361-0.152-1.13-0.606-0.785 c-0.035,0.026-0.063,0.057-0.097,0.084c-0.001-0.002-0.003-0.004-0.004-0.006c-0.08,0.067-0.151,0.14-0.229,0.208 c-0.24,0.201-0.475,0.407-0.689,0.626c-0.423,0.394-0.832,0.805-1.227,1.23c-0.243-0.615-0.53-1.269-1.137-1.453 c-0.226-0.068-0.438,0.05-0.565,0.23c-0.022,0.031-0.044,0.062-0.065,0.093c-0.264,0.375,0.098,0.728,0.461,0.719 c0.257,0.295,0.605,1.341,0.712,1.565c0.009,0.019,0.03,0.029,0.042,0.046c-0.137,0.246-0.265,0.498-0.389,0.752 c-0.209-0.573-0.408-1.149-0.651-1.68c-0.151-0.33-0.71-0.324-0.863,0c-0.82,1.733-1.64,3.465-2.46,5.198 c-0.274,0.579,0.588,1.087,0.863,0.505c0.666-1.408,1.332-2.815,1.998-4.223c0.186,0.484,0.365,0.969,0.56,1.44 c-0.343,0.847-0.648,1.716-0.936,2.589c-0.202,0.612,0.763,0.875,0.964,0.266c0.18-0.546,0.368-1.096,0.566-1.644 c0.414,0.687,0.951,1.287,1.751,1.714c0.255,0.136,0.683,0.036,0.734-0.299c0.322-2.111,1.111-4.018,2.431-5.704 C24.27,15.946,23.567,15.234,23.171,15.74z"/></svg>