<svg xmlns="http://www.w3.org/2000/svg"  viewBox="0 0 512 512" width="100px" height="100px"><path fill="#127274" d="M440.9,358c-8.3-7.8-18.3-13.7-28.9-17.8c-8.9-3.5-20.1-7-29.8-5.3c-9.4,1.6-18.5,7.8-25.1,14.5c-6.3,6.4-12.8,14.8-12.4,24.3c0.1,3-1.8,4.8-4.1,5.4c-1.5,2.9-0.7,7,0.1,10c1.9,6.9,4.9,13.3,8.5,19.5c7.3,12.6,14.5,22.4,28.2,28.5c10.3,4.6,22.3,6.6,33.3,3.6c11.9-3.2,21.3-10.7,29.1-20c7.5-8.9,14.7-20.5,14.8-32.6C454.7,376.4,449.2,365.8,440.9,358z M421.4,407.9c-9,13.2-26.4,15.3-40.3,9.4c-14.9-6.3-25.7-20.7-25.3-37.2c0-1.5,0.6-2.7,1.4-3.6c-0.6-14.9,8.8-26.8,24.2-27.9c14-0.9,28.3,5.2,37.5,15.7C429.5,376.5,430.5,394.6,421.4,407.9z"/><path fill="#D6E5E5" d="M231.3,178c-0.3-7.9,0.3-15.8,0.5-23.7c0.2-8.6,0.4-18.3-3.6-26.1c-3.3-6.6-10.3-8-17.1-8.2c-9.2-0.3-18.3,0.6-27.5,1.3c-10.2,0.8-20.8-0.5-30.6,3.1c-0.8,0.3-1.6,0.4-2.2,0.3c0,0,0,0,0,0c0.1,2.8-1.6,4.5-3.7,5.2c-2.1,10,0.9,21.9,1.8,31.4c0.7,7.7,0.5,15.4,0.9,23.1c0.4,8.8,1,17.6,1,26.4c0,4.6-0.7,10.5,0.6,14.8c0.4,1.4,0,1.2,1.1,1.9c0.2,0.1,2.1,0.7,3.1,0.9c14.5,2.6,29.6,2.5,44.3,2.5c0.8,0,1.5,0.2,2.2,0.4c2.2-0.8,4.5-1.4,6.9-1.5c3.6-0.2,7.2,0.3,10.8-0.1c9-1.1,11.8-12.8,12.4-20.3C233,198.9,231.8,188.4,231.3,178z"/><path fill="#BCBCBC" d="M416.5 381.8c-3.5-12.5-15.7-20.8-28.2-22.4-12-1.5-21.2 4.3-20.5 17.1.1 1.7-.5 3.1-1.5 4 0 1.3 0 2.6.2 3.9 1.8 13.7 15.1 25.6 29.1 25.7 6.6 0 12.8-2.1 16.8-7.6C416.5 396.8 418.4 388.6 416.5 381.8zM189.4 385.5c-3.5-12.5-15.7-20.8-28.2-22.4-12-1.5-21.2 4.3-20.5 17.1.1 1.7-.5 3.1-1.5 4 0 1.3 0 2.6.2 3.9 1.8 13.7 15.1 25.6 29.1 25.7 6.6 0 12.8-2.1 16.8-7.6C189.4 400.5 191.3 392.2 189.4 385.5z"/><path fill="#127274" d="M29.6,286.3c-0.1,12.5,0.7,25,0.4,37.5c0,0.1,0,0.3,0,0.4c8-2.3,12.2-10.4,12.1-18.8C42,297.5,38.8,286.9,29.6,286.3z"/><path fill="#D6E5E5" d="M353.9,162.1c1.6-13.6,6-41.4-12.9-44.6c-10.9-1.8-21.7,0.9-32.6,1.2c-12.4,0.4-24.8,0.2-37.1,0.9c-0.7,1.2-2.1,2.1-4,2.1c-0.9,0-1.7-0.1-2.5-0.2c-0.7,15.6,0.1,31.3,0.8,46.9c0.4,8.5,1,17,0.7,25.5c-0.2,5.3-0.2,10.7,0.6,16c1.1,6.8,3.7,14.3,10.1,17.9c7.4,4.2,16.4,4.8,24.8,4.7c10.8-0.2,21.6,1.2,32.4,0.4c4.5-0.4,10-0.9,13.1-4.7c2.8-3.5,3.7-8.1,3.7-12.5c0-8.9-1.8-17.2-0.8-26.1C351.2,180.4,352.8,171.3,353.9,162.1z"/><path fill="#127274" d="M213.8,361.6c-8.3-7.8-18.3-13.7-28.9-17.8c-8.9-3.5-20.1-7-29.8-5.3c-9.4,1.6-18.5,7.8-25.1,14.5c-6.3,6.4-12.8,14.8-12.4,24.3c0.1,3-1.8,4.8-4.1,5.4c-1.5,2.9-0.7,7,0.1,10c1.9,6.9,4.9,13.3,8.5,19.5c7.3,12.6,14.5,22.4,28.2,28.5c10.3,4.6,22.3,6.6,33.3,3.6c11.9-3.2,21.3-10.7,29.1-20c7.5-8.9,14.7-20.5,14.8-32.6C227.6,380.1,222.1,369.5,213.8,361.6z M194.3,411.6c-9,13.2-26.4,15.3-40.3,9.4c-14.9-6.3-25.7-20.7-25.3-37.2c0-1.5,0.6-2.7,1.4-3.6c-0.6-14.9,8.8-26.8,24.2-27.9c14-0.9,28.3,5.2,37.5,15.7C202.4,380.2,203.4,398.3,194.3,411.6z"/><path fill="#EF4823" d="M484.7,289c-1.2-14.1-4.2-28.1-6.4-42.1c-4.3-28.2-8.4-56.7-9-85.3c-0.2-10.7,0.9-21.1,1.8-31.7c0.8-9,1.9-19.1-1.6-27.7c-1.4-3.3,0.7-5.8,3.3-6.6c-0.2-0.2-0.7-0.8-1.5-1.4c-1.1-0.7-4.1-2-6.1-2.5c-7.1-2-14.5-2.9-21.9-3.4c-15-1.1-30.2,0.1-45.2,0.1c-31.9,0-63.7,0.1-95.6,0.7c-31.5,0.6-62.8,0.6-94.3-1.6c-28.5-2-57-5.5-85.5-7.3c-16.2-1-36.2-2.6-50.3,7.2c-7.1,4.9-11.9,12.4-14.3,20.6c-3.9,13-5,26.9-5.1,40.4c-0.1,15-0.2,29.9-0.4,44.8c-0.3,14.6-1.2,29.3,0,43.9c0.2,2.7-1.3,4.4-3.2,5.1c-0.1,0.2-0.1,0.3-0.2,0.5c-3.9,7.8-9.3,14.4-13.8,21.8c-2.2,3.6-3.7,7.3-4.7,11.2c30,3.4,28.5,54.8-1.2,59.2c-0.3,7.3-0.5,14.7,0.4,21.9c0.5,4.4,1.5,9,5.8,10.8c5.6,2.3,12.5,1.8,18.4,1.8c16.3-0.1,34.9-5.2,50.4,2c1.2,0.6,2,1.4,2.4,2.3c0.1-0.1,0.1-0.1,0.2-0.2c0.7-7.4,4-14.3,8.5-20.3c0-38.9-1.1-77.8-1.4-116.8c-3.4,1.9-7.4,3-11.8,3.7c-9.4,1.4-23.6,2.6-31.2-4.3c-0.3-0.3-0.5-0.5-0.7-0.8c-1.4-0.7-2.5-2.1-2.5-4.2c-0.1-20.8-2.1-41.5-2.7-62.3c-0.2-7.5-0.4-15-0.5-22.6c-0.1-6.2-0.2-12.7,1.3-18.7c1.3-5.5,3.9-11.9,9.1-14.8c4.1-2.3,8.7-2.7,13.3-2.9c6.2-0.2,12.4,0,18.6,0.8c3.3,0.4,7.1,0.8,10,2.5c2.9-0.6,6.1,0.8,6.1,4.6c0,20,0.8,40,1.2,60c0.2,8.6-0.2,17.3,0.5,25.8c0.4,5.8,1.1,11.7,0.1,17.4c-0.1,0.6-0.2,1.3-0.4,1.9c0,0.1,0,0.1,0,0.2c0,39.8,1.2,79.5,1.4,119.3c10.3-8.9,22.9-15.3,36.8-14.3c15.4,1.1,31,7,43.9,15.3c11.1,7.2,22,16.8,27.3,29.3c0.1,0,0.2,0,0.3,0h95.2c0.8,0,1.5,0.1,2.1,0.4c0.7-1,1.4-1.9,2.4-2.8c1.2-12.3,9.5-23.2,18.7-31.1c10.4-9.1,23.1-15.7,37.2-14.6c15.4,1.1,31,7,43.9,15.3c10.5,6.8,20.8,15.7,26.4,27.2c4.7,0.1,13.6,1.1,16.6-2.4c2.3-2.7,3.4-6.2,4.1-9.6c1.7-8.4,1.7-16.9,2.5-25.4C484.9,316,485.8,302.3,484.7,289z M98.9,255.5c6.8,0,7.6,10.6,0.8,10.6C93,266,92.1,255.5,98.9,255.5z M242.4,212.8c-1.3,9.9-5.7,22.1-15.9,26.1c-8.2,3.2-17.2-0.8-24.7,4.6c-3,2.2-6.1,0.6-7.5-2c-7.4,0-14.7-0.2-22.1-0.7c-6.6-0.5-13.9-0.5-20.3-2.2c-10.5-2.9-11.8-11.5-11.8-21.2c0-10.1-0.5-20.1-1-30.1c-0.4-8.3-0.1-16.7-1-25c-1.3-13.6-5-29.4,1-42.3c0.9-2,3.6-3.5,5.8-2.8c0.5,0.1,0.9,0.3,1.3,0.5c0.4-1.3,1.4-2.5,3.1-3.2c11-4.1,22.9-2.9,34.4-3.8c10.3-0.8,20.9-1.9,31.2-0.8c8.6,0.9,17,4,21.4,11.9c4.8,8.6,5.8,18.6,5.7,28.3c0,9.1-1,18.2-0.5,27.3C242.5,189,243.9,201,242.4,212.8z M365,157c-1.2,13-4,25.9-4.9,39c-0.6,9.2,2.7,18.2,0.5,27.6c-2.4,10.2-9.2,17.2-19.6,19.1c-10.7,2-21.6,0.4-32.5,0.3c-9.1-0.1-18.4,0.6-27.3-2c-16.5-4.8-24.3-18-25.5-34.7c-0.9-13.5-0.4-27.2-1-40.8c-0.7-15.3-1.4-30.6-0.6-45.8c0.1-2.2,1.3-3.7,2.9-4.6c0.1-2.6,2.1-5.1,4.9-5.4c19.8-1.9,39.6-0.9,59.4-2.7c13.2-1.2,31.7-2.1,39.1,11.6C366.7,130.3,366.2,144.2,365,157z M464.5,128.6c-0.5,6.6-2.3,12.9-3.3,19.4c-1.3,8.5-1.3,17.4-1.4,26c-0.2,11.7,0.9,23.8-0.4,35.5c-0.8,7.3-2.9,15.1-8,20.6c-11.8,13-35.6,13.9-51.2,8.7c-7.4-2.5-14.4-6.6-18.4-13.6c-4-7.2-5.5-15.3-5.9-23.4c-0.8-13.1-0.3-26.2-0.3-39.3v-47.2c0-2.4,1.3-4,3-4.9c0.3-1.6,1.4-2.9,3.5-3.4c10.4-2.6,21-5,31.7-6.4c11.4-1.4,23.7-2.2,34.7,1.7C460,106.6,465.4,116.4,464.5,128.6z"/><path fill="#127274" d="M94,216.7c-3.5-5.6-7.9-7.9-14.5-7c-0.5,0.1-1,0.1-1.5,0c0.3,6.1,0.5,12.3,0.6,18.4c2.6,2,7.4,2.2,10.5,2.2c3.4,0.1,6.8-0.1,10.2-0.4C98.4,225.3,96.2,220.1,94,216.7z"/><path fill="#D6E5E5" d="M449.8 115.1c-2.8-2.2-6.4-3.3-9.9-3.9-17.7-3.2-36.7 1.5-53.9 5.8 0 24.6-.2 49.2 0 73.7.1 11.1-.6 27 9.5 34.5 7.2 5.3 17.7 6.2 26.2 5.6 7.1-.4 16-1.4 21.1-7 4.6-5.1 6-12.3 6.3-19 .6-13.1-.3-26.2.2-39.3.3-7.2.4-14.7 1.8-21.8 1-5.2 2.4-10.5 2.8-15.8C454.3 123.2 453.8 118.2 449.8 115.1zM114.9 209.8c-.9-14.2-.8-28.4-1.1-42.7-.4-14.8-.8-29.7-.9-44.5-.4-.2-.8-.4-1.1-.7 1.4 1.1-.6 0 0 .1-1-.2-1.9-.5-2.9-.6-2.2-.4-4.4-.6-6.7-.8-4.9-.4-9.8-.5-14.7-.2-3.4.2-6.4.2-8.5 3.2-2.6 3.7-3.2 9.1-3.4 13.5-.9 20.8.8 41.7 2 62.5.4-.1.8-.2 1.2-.3 9.1-1.3 17.6 2.2 22.9 9.8 2.6 3.8 4.6 8 5.9 12.4.5 1.7 1.2 3.5 1.7 5.4.2.2.3.3.4.5 1.6-.9 3-2.1 3.8-3.8C115.4 219.3 115.2 214.3 114.9 209.8z"/><path fill="#010101" d="M191.8 368.1c-9.2-10.5-23.5-16.7-37.5-15.7-15.4 1-24.7 12.9-24.2 27.9-.8.9-1.4 2.1-1.4 3.6-.4 16.5 10.4 30.9 25.3 37.2 13.9 5.9 31.3 3.8 40.3-9.4C203.4 398.3 202.4 380.2 191.8 368.1zM185.3 406.1c-4 5.5-10.2 7.6-16.8 7.6-14-.1-27.3-11.9-29.1-25.7-.2-1.3-.2-2.6-.2-3.9 1-.9 1.6-2.3 1.5-4-.7-12.8 8.5-18.6 20.5-17.1 12.6 1.6 24.7 9.9 28.2 22.4C191.3 392.2 189.4 400.5 185.3 406.1zM418.9 364.4c-9.2-10.5-23.5-16.7-37.5-15.7-15.4 1-24.7 12.9-24.2 27.9-.8.9-1.4 2.1-1.4 3.6-.4 16.5 10.4 30.9 25.3 37.2 13.9 5.9 31.3 3.8 40.3-9.4C430.5 394.6 429.5 376.5 418.9 364.4zM412.4 402.4c-4 5.5-10.2 7.6-16.8 7.6-14-.1-27.3-11.9-29.1-25.7-.2-1.3-.2-2.6-.2-3.9 1-.9 1.6-2.3 1.5-4-.7-12.8 8.5-18.6 20.5-17.1 12.6 1.6 24.7 9.9 28.2 22.4C418.4 388.6 416.5 396.8 412.4 402.4z"/><path fill="#010101" d="M490.6,257.2c-4.6-30.1-9.3-60.3-10.5-90.8c-0.5-12.1,0.6-23.8,1.6-35.8c0.8-8.9,1.6-18.6-0.7-27.4c0.5-0.4,0.9-1,1.2-1.7c11.9-25.6-50.2-24.6-62.6-23.8c-11.2,0.7-22.5,0.3-33.7,0.4c-15.9,0-31.9,0.1-47.8,0.2c-31.7,0.3-63.5,1.8-95.3,0.8c-31.4-1-62.7-3.9-93.9-7c-19.9-2-41-4.8-60.9-1.3C70.1,73.7,56,84,49.4,101.2c-10,25.9-6.1,55.3-7,82.5c-0.6,17.3-1.7,34.9-0.4,52.2c-0.9,0.5-1.6,1.2-2.2,2.3c-4,8.1-9.7,15-14.4,22.7c-4.6,7.5-6,15.8-6.3,24.5c-0.2,6.1,0.5,12.2,0.6,18.3c0.1,6.9,0,13.9-0.2,20.8c-0.3,11.6-1.4,23.7,0.2,35.2c0.8,5.8,3,11.8,7.9,15.3c5.5,4,12.5,4.5,19.1,4.8c8.6,0.4,17.1-0.3,25.7-0.9c8.8-0.6,19.2-1.9,27.5,1.9c1,0.5,1.9,0.6,2.8,0.5c-2.6,10.6,4.1,24.3,8.6,32.9c3.6,6.8,7.8,13.3,12.6,19.3c6,7.5,14.3,13.1,23,17c21.7,9.8,46.7,6,64.4-9.9c16.3-14.6,29.7-35.6,26.1-57.9h91.8c0,9.6,5.4,20.5,9.2,27.7c3.6,6.8,7.8,13.3,12.6,19.3c6,7.5,14.3,13.1,23,17c21.7,9.8,46.7,6,64.4-9.9c16.8-15,30.5-36.9,25.7-59.9c5.5,0.1,11.8,0.1,16.3-2.4c3.6-2,6.1-5.1,7.9-8.7c4.4-8.3,4.6-18.7,5.2-27.9c0.7-11.8,2-23.6,2.2-35.5C496,287.3,492.9,272.4,490.6,257.2z M29.6,286.3c9.2,0.6,12.4,11.3,12.5,19.1c0.1,8.4-4.2,16.6-12.1,18.8c0-0.1,0-0.3,0-0.4C30.3,311.2,29.5,298.7,29.6,286.3z M212.8,424.2c-7.9,9.3-17.2,16.8-29.1,20c-11,3-23.1,1-33.3-3.6c-13.6-6.1-20.8-15.9-28.2-28.5c-3.6-6.1-6.6-12.6-8.5-19.5c-0.8-3-1.6-7.1-0.1-10c2.3-0.5,4.2-2.4,4.1-5.4c-0.4-9.5,6.1-17.9,12.4-24.3c6.6-6.7,15.7-12.8,25.1-14.5c9.7-1.7,20.9,1.8,29.8,5.3c10.6,4.1,20.6,10,28.9,17.8c8.3,7.8,13.8,18.4,13.8,30C227.5,403.7,220.3,415.2,212.8,424.2z M439.9,420.5c-7.9,9.3-17.2,16.8-29.1,20c-11,3-23.1,1-33.3-3.6c-13.6-6.1-20.8-15.9-28.2-28.5c-3.6-6.1-6.6-12.6-8.5-19.5c-0.8-3-1.6-7.1-0.1-10c2.3-0.5,4.2-2.4,4.1-5.4c-0.4-9.5,6.1-17.9,12.4-24.3c6.6-6.7,15.7-12.8,25.1-14.5c9.7-1.7,20.9,1.8,29.8,5.3c10.6,4.1,20.6,10,28.9,17.8c8.3,7.8,13.8,18.4,13.8,30C454.6,400.1,447.4,411.6,439.9,420.5z M483.6,329.3c-0.9,8.5-0.8,17-2.5,25.4c-0.7,3.4-1.8,6.9-4.1,9.6c-3,3.5-11.9,2.5-16.6,2.4c-5.6-11.4-15.9-20.4-26.4-27.2c-12.9-8.3-28.6-14.1-43.9-15.3c-14.1-1-26.8,5.6-37.2,14.6c-9.1,7.9-17.5,18.8-18.7,31.1c-0.9,0.9-1.7,1.8-2.4,2.8c-0.6-0.2-1.3-0.4-2.1-0.4h-95.2c-0.1,0-0.2,0-0.3,0c-5.3-12.4-16.2-22.1-27.3-29.3c-12.9-8.3-28.6-14.1-43.9-15.3c-13.9-1-26.5,5.4-36.8,14.3c-0.2-39.8-1.4-79.5-1.4-119.3c0-0.1,0-0.1,0-0.2c0.1-0.6,0.3-1.2,0.4-1.9c0.9-5.7,0.3-11.7-0.1-17.4c-0.6-8.6-0.3-17.2-0.5-25.8c-0.4-20-1.2-40-1.2-60c0-3.8-3.3-5.2-6.1-4.6c-3-1.7-6.8-2.1-10-2.5c-6.1-0.8-12.4-1-18.6-0.8c-4.6,0.1-9.2,0.6-13.3,2.9c-5.3,2.9-7.8,9.3-9.1,14.8c-1.5,6-1.4,12.5-1.3,18.7c0.1,7.5,0.3,15,0.5,22.6c0.6,20.8,2.6,41.5,2.7,62.3c0,2.1,1.1,3.5,2.5,4.2c0.2,0.3,0.5,0.5,0.7,0.8c7.7,6.9,21.9,5.7,31.2,4.3c4.4-0.6,8.4-1.8,11.8-3.7c0.2,38.9,1.4,77.8,1.4,116.8c-4.5,6-7.8,12.9-8.5,20.3c-0.1,0.1-0.1,0.1-0.2,0.2c-0.4-0.9-1.2-1.7-2.4-2.3c-15.4-7.2-34.1-2.1-50.4-2c-5.9,0-12.8,0.5-18.4-1.8c-4.3-1.8-5.3-6.3-5.8-10.8c-0.9-7.2-0.7-14.5-0.4-21.9c29.6-4.4,31.2-55.8,1.2-59.2c0.9-3.9,2.4-7.6,4.7-11.2c4.5-7.4,9.9-14,13.8-21.8c0.1-0.2,0.2-0.3,0.2-0.5c1.9-0.7,3.4-2.5,3.2-5.1c-1.2-14.6-0.3-29.3,0-43.9c0.3-14.9,0.3-29.9,0.4-44.8c0.1-13.5,1.2-27.4,5.1-40.4c2.4-8.2,7.3-15.7,14.3-20.6c14-9.8,34.1-8.2,50.3-7.2c28.6,1.8,57,5.4,85.5,7.3c31.5,2.2,62.7,2.1,94.3,1.6c31.9-0.6,63.7-0.7,95.6-0.7c15,0,30.2-1.2,45.2-0.1c7.3,0.5,14.8,1.5,21.9,3.4c2,0.6,5,1.8,6.1,2.5c0.9,0.6,1.4,1.1,1.5,1.4c-2.6,0.8-4.6,3.3-3.3,6.6c3.5,8.5,2.4,18.7,1.6,27.7c-0.9,10.6-2,21-1.8,31.7c0.6,28.6,4.7,57,9,85.3c2.1,14,5.2,28,6.4,42.1C485.8,302.3,484.9,316,483.6,329.3z M78.7,199.2c-0.4,0.1-0.8,0.2-1.2,0.3c-1.2-20.8-2.9-41.7-2-62.5c0.2-4.4,0.8-9.8,3.4-13.5c2.1-3,5.2-2.9,8.5-3.2c4.9-0.3,9.8-0.2,14.7,0.2c2.2,0.2,4.5,0.5,6.7,0.8c1,0.2,1.9,0.4,2.9,0.6c-0.6-0.2,1.4,1,0-0.1c0.4,0.3,0.8,0.5,1.1,0.7c0.1,14.8,0.5,29.7,0.9,44.5c0.4,14.2,0.2,28.5,1.1,42.7c0.3,4.6,0.5,9.5-1.4,13.8c-0.8,1.7-2.2,2.9-3.8,3.8c-0.1-0.2-0.3-0.4-0.4-0.5c-0.5-1.9-1.2-3.7-1.7-5.4c-1.4-4.4-3.3-8.6-5.9-12.4C96.4,201.4,87.8,197.9,78.7,199.2z M99.4,229.9c-3.4,0.4-6.8,0.5-10.2,0.4c-3.1-0.1-7.9-0.2-10.5-2.2c-0.1-6.1-0.3-12.3-0.6-18.4c0.5,0.1,0.9,0.1,1.5,0c6.6-0.9,11,1.4,14.5,7C96.2,220.1,98.4,225.3,99.4,229.9z"/><path fill="#010101" d="M241.9 177.2c-.5-9.1.5-18.2.5-27.3 0-9.7-1-19.7-5.7-28.3-4.4-8-12.9-11-21.4-11.9-10.4-1.1-20.9 0-31.2.8-11.5.9-23.4-.3-34.4 3.8-1.7.6-2.7 1.8-3.1 3.2-.4-.2-.8-.3-1.3-.5-2.2-.7-4.8.9-5.8 2.8-6 12.9-2.4 28.8-1 42.3.8 8.3.6 16.7 1 25 .5 10 .9 20.1 1 30.1 0 9.7 1.3 18.3 11.8 21.2 6.4 1.8 13.7 1.8 20.3 2.2 7.4.5 14.7.7 22.1.7 1.3 2.6 4.4 4.2 7.5 2 7.4-5.4 16.5-1.4 24.7-4.6 10.2-4 14.6-16.1 15.9-26.1C243.9 201 242.5 189 241.9 177.2zM232.2 209.4c-.6 7.5-3.3 19.2-12.4 20.3-3.6.4-7.2-.1-10.8.1-2.4.1-4.7.7-6.9 1.5-.6-.3-1.4-.4-2.2-.4-14.7 0-29.8.2-44.3-2.5-1-.2-2.9-.8-3.1-.9-1.1-.8-.7-.5-1.1-1.9-1.3-4.3-.6-10.2-.6-14.8 0-8.8-.6-17.6-1-26.4-.4-7.7-.2-15.4-.9-23.1-.9-9.5-3.8-21.5-1.8-31.4 2.1-.7 3.7-2.5 3.7-5.2 0 0 0 0 0 0 .7 0 1.4-.1 2.2-.3 9.7-3.6 20.4-2.4 30.6-3.1 9.1-.7 18.3-1.6 27.5-1.3 6.8.3 13.8 1.6 17.1 8.2 3.9 7.9 3.7 17.6 3.6 26.1-.2 7.9-.8 15.8-.5 23.7C231.8 188.4 233 198.9 232.2 209.4zM365 157c1.2-12.8 1.7-26.7-4.5-38.3-7.4-13.7-25.9-12.8-39.1-11.6-19.8 1.8-39.6.8-59.4 2.7-2.8.3-4.8 2.8-4.9 5.4-1.5.9-2.7 2.4-2.9 4.6-.8 15.3-.1 30.6.6 45.8.6 13.6.1 27.2 1 40.8 1.2 16.7 9 29.9 25.5 34.7 8.9 2.6 18.2 1.9 27.3 2 10.8.1 21.7 1.8 32.5-.3 10.4-2 17.2-8.9 19.6-19.1 2.1-9.3-1.1-18.3-.5-27.6C361 182.9 363.8 170 365 157zM353.9 162.1c-1.1 9.2-2.7 18.3-3.7 27.4-1 8.9.8 17.2.8 26.1 0 4.4-.9 9.1-3.7 12.5-3.1 3.8-8.5 4.3-13.1 4.7-10.7.9-21.6-.6-32.4-.4-8.4.1-17.3-.4-24.8-4.7-6.4-3.6-9-11-10.1-17.9-.8-5.3-.8-10.7-.6-16 .3-8.5-.3-17.1-.7-25.5-.7-15.6-1.5-31.3-.8-46.9.8.1 1.6.2 2.5.2 2 0 3.3-.8 4-2.1 12.4-.7 24.7-.5 37.1-.9 10.9-.3 21.7-3 32.6-1.2C359.9 120.7 355.5 148.6 353.9 162.1zM448.3 102.5c-11-3.9-23.3-3.1-34.7-1.7-10.7 1.3-21.3 3.8-31.7 6.4-2.1.5-3.2 1.9-3.5 3.4-1.7.8-3 2.5-3 4.9v47.2c0 13.1-.5 26.3.3 39.3.5 8.1 1.9 16.2 5.9 23.4 3.9 7.1 10.9 11.2 18.4 13.6 15.6 5.2 39.4 4.2 51.2-8.7 5.1-5.6 7.1-13.3 8-20.6 1.3-11.7.3-23.7.4-35.5.1-8.6.1-17.5 1.4-26 1-6.5 2.8-12.8 3.3-19.4C465.4 116.4 460 106.6 448.3 102.5zM454 128c-.4 5.3-1.8 10.6-2.8 15.8-1.4 7.1-1.5 14.6-1.8 21.8-.5 13.1.3 26.2-.2 39.3-.3 6.7-1.6 13.9-6.3 19-5.1 5.6-14 6.6-21.1 7-8.6.5-19.1-.3-26.2-5.6-10.1-7.5-9.4-23.3-9.5-34.5-.2-24.6 0-49.1 0-73.7 17.2-4.3 36.2-9 53.9-5.8 3.5.6 7 1.8 9.9 3.9C453.8 118.2 454.3 123.2 454 128zM98.9 255.5c-6.8 0-6 10.6.8 10.6C106.6 266 105.7 255.5 98.9 255.5z"/></svg>