<svg xmlns="http://www.w3.org/2000/svg"  viewBox="0 0 512 512" width="96px" height="96px"><path fill="#127274" d="M258.3,260.4c-2.3,0-4.7,0.3-6,1.4c0.2,4.2,0.7,8.4,1.4,12.5c0.4,2.5,1,6.5,1.6,9.4c0.4,0.3,0.7,0.6,0.9,0.9c1.4-1.1,3.3-1.5,5.3-0.6C260,276.3,260,268.2,258.3,260.4z"/><path fill="#BCBCBC" d="M291 62.2c-5.3-5.8-10.8-11.9-17.6-16-13.3-7.9-28.8-9.1-43.7-5.6-15.6 3.6-31.5 9.5-43.6 20.2-6 5.3-11.2 11.4-14.4 18.8-2.4 5.5-4.3 11.1-6.4 16.6 11.3-.1 22.6-.3 34-.4 12.7-.2 25.5.3 38.2-1.1 12.4-1.4 24.6-3.9 37-5.4 8.5-1 17.5-1.6 25.8-3.9.7-1 1.9-1.8 3.5-1.9C302 75.5 296.5 68.2 291 62.2zM232.7 136.5c-12.5.7-25 .9-37.4 2-5.8.5-11.6 1.1-17.4 1 4.3 9.2 11.1 16.9 20.4 21.5 11.3 5.6 24.4 7.7 36.9 7.2 13.9-.5 27.7-4 39.6-11.4 6.3-3.9 12.1-8.4 17.3-13.7 4.1-4.1 10.1-9.5 10.3-15.7C279.5 132 256.2 135.2 232.7 136.5z"/><path fill="#127274" d="M310.4,93.6c-0.4,0.2-0.8,0.5-1.2,0.6c-10.8,3.9-22.6,4.6-33.9,6.1c-12.4,1.6-24.6,4.1-37,5.4c-12.7,1.3-25.4,0.9-38.2,1.1c-12.4,0.2-24.8,0.4-37.2,0.5c0,8.8,0.6,20.5,8.9,21.1c10.1,0.8,20.2-0.6,30.2-1.4c10-0.8,20-0.7,29.9-1.3c20.2-1.2,40.4-3.6,60.3-7.3c5.1-0.9,10.2-1.9,15.3-3c0.9-0.2,2.2-0.9,2.4-0.6c0-0.5,0-1.2,0-1.5C309.7,106.6,310.6,100.1,310.4,93.6z"/><path fill="#BCBCBC" d="M359.2,319.9c4.6-7,15.9-18,8.6-25.9c-15.8,11.1-26.8,30.3-23.6,50c1.9,11.8,6.3,23,8.7,34.7c2.2,10.8,3,22.3,1.2,33.2c-5.9,35.9-52.6,67.4-85,42c-0.4-0.3-0.8-0.7-1.1-1.1c-1.1,0-2.2,0-3.4,0c3.9,8.2,8.6,16.8,18.2,19.2c11.5,2.8,23.6,0,33.8-5.6c18.1-9.9,39.3-23.6,48.3-42.9c10.9-23.4-5.7-47.7-10.3-70.8C352.4,341,352.4,330,359.2,319.9z"/><path fill="#127274" d="M286.5,422.1c-5.9,2.3-12.5,3.5-18.5,4.3c-5.7,0.7-11.6,1-17.3,0.5c0.7,4.6,1.7,10.8,4.8,13.3c2.3,1.8,7.5,1.6,10.2,1.6c3.7,0,7.4-0.2,11-0.6c1.7-0.1,7,0.3,8.3-1.1c0.9-1.1,0.9-3,0.9-4.4c0-3,0-6,0.2-9C286.2,425.7,286.6,423.6,286.5,422.1z"/><path fill="#14B6B9" d="M293.8,373.5c-0.3-13-0.2-26-1.2-39c-4.6-57.5-6.2-114.9-5.5-172.6c-1.1,0.8-2.3,1.6-3.5,2.4c-14.2,9.1-30.7,14.5-47.6,14.9c-9.3,0.2-19.2-0.5-28.5-2.9c0,0.3,0.1,0.6,0.1,0.9c0.5,3.1,1.1,6.2,1.8,9.2c1.6,6.7,3.4,13.4,5,20.1c4.7,19.6,7.1,40,9.2,60c5.2,48.4,12.9,97.1,13.1,145.9c0.3,0.1,0.7,0.2,1,0.3c10.5,4.5,22.9,4,33.9,1.8c8.5-1.7,19.6-4.1,21.9-13.8C295.8,391.9,294,382.6,293.8,373.5z M270.5,294.3c-4.5,1-9.2,1.8-13.6-0.3c-0.9-0.4-1.5-1-2-1.6c-0.2,0.2-0.5,0.5-0.8,0.7c-3.1,2.1-6.8,0.5-8.3-2.7c-1.8-4-1.9-9.3-2.7-13.6c-1.1-6.4-1.8-12.8-1.9-19.3c-0.1-4.1,3.7-6.2,6.8-5.7c4.3-2.1,9.4-2.2,14.2-2.2c2.4,0,4.9,1.2,5.6,3.7c3.2,11.1,2,23.1,6,34C274.8,289.8,273.4,293.6,270.5,294.3z"/><path d="M366.6,355.5c-1.8-6.5-3.2-13.9-2.1-20.7c0.9-6,5.2-11.1,8.6-15.9c7.4-10.6,12.4-22.1,2.5-32.9c-0.4-0.3-0.7-0.7-1.1-1c-0.8-3.2-4.5-5.5-8.3-3.3c-17,9.7-28.9,26.4-32.7,45.6c-4.4,21.8,8.2,42.9,10.1,64.3c0.9,10.1,0.4,20.9-4,30.2c-3.6,7.7-9.6,14.3-16.3,19.5c-10.4,8.1-24.3,12.9-36.8,9.4c5.2-1.5,9.1-4.6,10-11.3c0.5-3.9,0.1-7.9,0.4-11.8c0.3-3.7,0.8-7.9-0.7-11.4c1.1-0.9,2.1-1.9,3-3c6.4-7.5,6.7-18,6.3-27.3c-0.5-12.4-0.4-24.8-1-37.2c-0.7-15.3-2.5-30.6-3.5-45.9c-1.1-16.3-1.7-32.7-2.2-49c-1-32-1.1-64.1-0.7-96.1c0-1.4-0.7-2.7-1.8-3.7c2.1-1.9,4.1-4,6.1-6c6-6.2,11.2-13.4,11-22.3c0-0.4-0.1-0.8-0.1-1.2c4.4-1.6,7.5-4.4,7.6-10.5c0.1-10.7,1.3-21.1-1-31.7c-0.6-2.5-3.4-3.7-5.6-3.7h-0.5c-2.2-7.5-6.3-14.1-11.4-20.3c-5.9-7.3-12.6-14.4-20.3-19.8C267,28.1,248.4,26,230.4,29.3c-18.6,3.5-37.4,10.9-51.7,23.5c-7,6.1-13.1,13.4-16.9,21.9c-2,4.6-4,9.2-5.8,13.9c-0.9,2.5-2.2,5.3-2.6,8.1c-1,1-1.6,2.3-1.5,4.1c0.7,12.7-0.9,29.6,12.3,36.6c0.4,0.2,0.9,0.4,1.3,0.6c0,0.1,0,0.1,0,0.2c4.8,13.5,13.4,24.3,25.8,31.5c1.7,1,3.4,1.8,5.1,2.6c-0.1,2.4,0.3,5,0.7,7.4c1.2,7.4,3.1,14.7,5,22c4.8,18.8,7.5,38.2,9.9,58c3.2,27.1,6.2,54.2,9,81.2c2.6,24.9,5,49.6,5,74.6c0,3.1,2.2,4.7,4.6,4.9c0.5,0.9,1.3,1.6,2.5,2.1c2.1,0.9,4.2,1.6,6.3,2.2c1.6,8.2,2.9,17.3,8.9,23.6c1.2,1.3,2.9,2.1,4.7,2.7c-0.1,0.9,0,1.9,0.4,2.9c0.1,0.2,0.2,0.5,0.3,0.7c0.1,0.3,0.3,0.6,0.4,0.8c4.9,10.5,10.4,20.3,21.7,25.3c11.6,5.2,25.8,3.3,37.3-0.9c12.1-4.5,23.2-12.4,33.5-20c10-7.4,18.9-16.2,25.6-26.7c6.6-10.4,9.3-22.9,7.1-35.1C376.7,383.6,370.5,369.9,366.6,355.5z M171.6,79.6c3.3-7.3,8.5-13.5,14.4-18.8c12.2-10.7,28-16.6,43.6-20.2c15-3.5,30.4-2.3,43.7,5.6c6.8,4,12.3,10.2,17.6,16c5.5,6,11,13.3,12.7,21.4c-1.6,0.1-2.8,0.9-3.5,1.9c-8.4,2.2-17.3,2.8-25.8,3.9c-12.4,1.5-24.6,4-37,5.4c-12.6,1.4-25.5,0.9-38.2,1.1c-11.3,0.2-22.6,0.4-34,0.4C167.3,90.7,169.2,85.1,171.6,79.6z M162.8,107.2c12.4,0,24.8-0.3,37.2-0.5c12.7-0.2,25.5,0.2,38.2-1.1c12.4-1.3,24.7-3.8,37-5.4c11.3-1.4,23.1-2.2,33.9-6.1c0.5-0.2,0.9-0.4,1.2-0.6c0.3,6.5-0.6,13-0.5,19.5c0,0.3,0,1,0,1.5c-0.3-0.3-1.5,0.4-2.4,0.6c-5.1,1.1-10.2,2.1-15.3,3c-19.9,3.7-40.1,6.1-60.3,7.3c-10,0.6-20,0.5-29.9,1.3c-10,0.8-20.1,2.2-30.2,1.4C163.4,127.7,162.8,116,162.8,107.2z M198.3,161c-9.3-4.6-16.1-12.3-20.4-21.5c5.8,0.1,11.6-0.5,17.4-1c12.5-1.1,24.9-1.3,37.4-2c23.4-1.3,46.8-4.5,69.8-9.2c-0.2,6.2-6.3,11.6-10.3,15.7c-5.2,5.3-11,9.8-17.3,13.7c-11.9,7.3-25.7,10.9-39.6,11.4C222.8,168.7,209.6,166.6,198.3,161z M237.8,412.8c-0.3-0.1-0.7-0.2-1-0.3c-0.2-48.8-7.9-97.5-13.1-145.9c-2.2-20-4.5-40.4-9.2-60c-1.6-6.7-3.4-13.4-5-20.1c-0.7-3.1-1.3-6.1-1.8-9.2c0-0.3-0.1-0.6-0.1-0.9c9.3,2.4,19.2,3.1,28.5,2.9c16.9-0.4,33.4-5.8,47.6-14.9c1.2-0.8,2.3-1.6,3.5-2.4c-0.7,57.6,0.8,115.1,5.5,172.6c1.1,13,0.9,25.9,1.2,39c0.2,9.1,2,18.4-0.2,27.4c-2.4,9.7-13.5,12.1-21.9,13.8C260.7,416.8,248.2,417.3,237.8,412.8z M255.4,440.2c-3.1-2.5-4-8.7-4.8-13.3c5.8,0.5,11.6,0.2,17.3-0.5c6-0.8,12.6-1.9,18.5-4.3c0.1,1.5-0.3,3.7-0.4,4.7c-0.2,3-0.2,6-0.2,9c0,1.4,0,3.3-0.9,4.4c-1.2,1.4-6.6,0.9-8.3,1.1c-3.7,0.3-7.3,0.5-11,0.6C262.9,441.9,257.6,442.1,255.4,440.2z M365,423.4c-9,19.3-30.3,33.1-48.3,42.9c-10.2,5.6-22.3,8.4-33.8,5.6c-9.6-2.3-14.4-11-18.2-19.2c1.1,0,2.2,0,3.4,0c0.3,0.4,0.6,0.7,1.1,1.1c32.4,25.4,79.1-6.1,85-42c1.8-10.9,1-22.4-1.2-33.2c-2.4-11.7-6.8-22.9-8.7-34.7c-3.2-19.7,7.8-38.9,23.6-50c7.4,7.9-3.9,19-8.6,25.9c-6.7,10.1-6.8,21.2-4.4,32.7C359.3,375.7,375.9,400,365,423.4z"/><path d="M273.9,287.3c-4-10.9-2.8-22.9-6-34c-0.7-2.5-3.2-3.7-5.6-3.7c-4.8,0-10,0.1-14.2,2.2c-3.1-0.5-6.9,1.5-6.8,5.7c0.1,6.5,0.8,12.9,1.9,19.3c0.7,4.2,0.9,9.6,2.7,13.6c1.4,3.2,5.1,4.8,8.3,2.7c0.3-0.2,0.6-0.4,0.8-0.7c0.5,0.6,1.1,1.2,2,1.6c4.4,2.1,9.1,1.3,13.6,0.3C273.4,293.6,274.8,289.8,273.9,287.3z M256.3,284.7c-0.3-0.4-0.6-0.7-0.9-0.9c-0.6-2.9-1.1-6.9-1.6-9.4c-0.7-4.1-1.2-8.3-1.4-12.5c1.3-1.1,3.7-1.4,6-1.4c1.6,7.8,1.7,15.8,3.2,23.6C259.5,283.2,257.6,283.6,256.3,284.7z"/></svg>