<svg xmlns="http://www.w3.org/2000/svg"  viewBox="0 0 512 512" width="100px" height="100px"><path fill="#14B6B9" d="M188,265.7c-1.5-13.5-5.9-26.9-14.2-37.9c-5-6.5-10.8-12.9-17.3-18.1c-1.4-0.4-2.5-1.3-3.2-2.4 c-1.2-0.9-2.4-1.7-3.6-2.5c-7.6-4.9-17.2-10.1-26-5.6c-1.7,0.8-3.1,0.7-4.3,0.1c-3.8,1.4-7.4,3.9-10.6,6.3 c-1.2,0.9-2.3,1.8-3.5,2.8c5.1,0.7,10.2,3.2,14.4,5.7c8.6,5.2,16.7,11.6,23.7,18.9c9.1,9.5,14.7,23,17.9,35.6 c3.5,13.5,4.8,27.3,5,41.2c3.8-1.4,7-3.4,8.9-6.7c-0.5-3.3,2.3-6.7,5.4-6.7c2-3.3,4-6.5,5.4-10 C188.7,279.7,188.7,272.6,188,265.7z"/><path fill="#14B6B9" d="M151.3,273.7c-2.8-10.8-7.1-24.2-14.7-32c-5.7-5.9-12.1-11.5-19-16c-3.6-2.3-12.7-8.8-16.8-6.2 c-2.4,1.6-4.9,1-6.5-0.5c-3.9,1.4-9.5,1.1-13.1,1.8c-2.1,0.4-5,1-7,2.3c9.9,2.3,20,12.2,26.8,17.3c19.1,14.5,32.5,33.7,39.5,56.6 c1.9,6.2,3.7,13.8,3.8,21c2.1-1.5,4.3-2.8,6.7-3.8c1.3-0.6,2.8-1,4.3-1.5C155.3,299.7,154.6,286.4,151.3,273.7z"/><path fill="#BCBCBC" d="M361.4,145.4c-3.4-4.7-9.1-7-14.2-9.6c-2.5,0.6-5.6-0.1-7-3.1c1,2.1,2.6,3.4,4.6,3.5 c0.3-0.1,0.7-0.1,0.2,0c0,0-0.1,0-0.1,0c0.1,0,0.2,0,0.3,0c-0.2,0-0.3,0-0.5,0c-0.2,0.1-0.5,0.1-0.7,0.2c-2,0.6-3.9,1.2-5.8,2 c-6.4,2.3-12.7,4.9-19,7.5c-30.6,12.6-60.9,25.9-91.5,38.6c-14.2,5.9-28.4,11.8-42.9,17.2c-4.8,1.8-9.8,3.8-14.9,5.5 c4.7,4.5,9.1,9.3,12.9,14.5c6.2,8.4,10.7,18.1,13.3,28.2c23.5-10.3,46.8-21.1,70.5-31.1c19-8,38.4-15.1,57.6-22.7 c13.8-5.5,30.8-12.5,37-27.1C364.2,162.2,366,151.7,361.4,145.4z"/><path fill="#14B6B9" d="M128.9,297c-3.8-11.4-9.5-22.4-17.2-31.7c-6.8-8.1-15.1-14.5-23.3-21c-3.8-3-7.6-6-11.9-8.3 c-1.7-0.9-3.4-1.9-5.2-2.2c-0.6-0.1-1.3-0.3-1.9-0.2c-0.3,0-0.5,0.2-0.7,0.2c2.4,2.8,1.9,7.8-1.9,8.9 c-1.6,24.8,10.3,50.7,25.3,69.8c6,7.6,14,16.9,23.7,19.5c8.5,2.2,16.7-0.2,17.6-9.9C134.3,313.6,131.6,304.9,128.9,297z"/><path fill="#14B6B9" d="M432.6,143.2c-2.2-20.6-10.8-39-22.6-55.8c-11.1-15.8-26.6-31.7-46.9-33.4c-11.3-0.9-22.6,7-30.8,14.1 c-4,3.5-7.7,7.3-11.1,11.4c8-3.9,16.9-6,25.6-6.6c39.5-2.4,60.9,43.2,65.3,76.5c1.2,8.6,1.6,19-0.5,28.4 c4.2-2.8,8.4-5.5,12.2-8.8c1.9-1.6,3.4-3.4,4.7-5.2c-0.3-1.9,0.5-3.8,2.5-4.7C432.8,154.3,433.3,148.9,432.6,143.2z"/><path fill="#14B6B9" d="M274.2,434c-6.8-10.1-17.5-18.9-29.9-20.6c-9.6-1.3-19.5-1.3-29.1-0.2c-9.3,1.1-20.3,2.9-27,10.1 c-0.8,0.9-1.7,1.4-2.6,1.6c-0.9,2.6-0.6,5.9-0.2,8.8c2.8,19,14.5,37.3,32.9,44.4c10.9,4.2,22,3.2,32.9-0.2 c9-2.9,18.9-7.1,24.9-14.7C283.2,454.2,280.3,443,274.2,434z"/><path fill="#14B6B9" d="M448.1,80.9c-6.8-14.4-17.3-31.6-32.4-38.4c-8.1-3.6-18.3-2.9-26.8-1.2c-4.8,1-9.6,2.3-14.3,3.7 c19.2,5.7,34.3,20.9,45.3,37.3c12.6,18.7,22.9,39.9,23.9,62.8c0.1,2.9,0,5.9-0.3,8.7C464.6,139.5,457.9,101.6,448.1,80.9z"/><path fill="#14B6B9" d="M401.3,152.4c-2.3-18.6-9.3-37.7-21.2-52.4c-5-6.2-11.2-11.9-18.8-14.7c-7.8-2.9-17.4-1.8-25.3,0.3 c-8.5,2.3-18.7,6.4-23.1,14.5c-6,10.9-2.5,24.5,2.5,35.2c5.2-2.1,10.4-4.2,15.6-6.2c3.2-1.2,7.9-3.5,12.1-3.9 c1.4-1.6,3.7-2.3,6.1-0.9c7.2,4,15.6,7,20.6,13.9c5.7,7.8,6.1,18.6,3.9,27.7c-2.2,9-7.1,16.1-13.3,21.9 c6.3,5.2,16.1,6.8,23.7,4.7c8.2-2.2,13.7-7.1,15.9-15.5C402.3,169.2,402.4,160.7,401.3,152.4z"/><path fill="#14B6B9" d="M261.5,390.2c-18.6-12.8-45.6-10.5-66.1-2c0.3,2.8-1.2,5.5-4.7,5.5c-2.2,5.3-3.7,10.9-4.6,16.6 c0.2-0.1,0.5-0.2,0.7-0.2c0.4-0.1,0.8-0.2,1.1-0.2c10.1-6,23-7.7,34.3-8.1c15.6-0.6,31,0.2,44.3,9.2 c12.2,8.2,23.7,23.3,24.8,38.5c3.1-4.2,6-8.4,8.5-12.9C287,421.2,278.2,401.7,261.5,390.2z"/><path fill="#14B6B9" d="M440,198c-2.3-3-4.7-5.9-7.7-8.2c-1.1-0.9-2.3-1.8-3.7-2.3c0,0-0.1,0-0.1,0c-3.4,1.8-6.7-0.1-8-2.8 c-3.8,2.6-7.6,5.2-10.9,8.4c16,10.2,28.1,27,29.3,45c4.9-7.8,8-16.5,10.7-25.2C447.1,207.5,443.5,202.5,440,198z"/><path fill="#14B6B9" d="M305.9,404.4c-3.8-9.5-11-17.6-18.7-24.3c-7.1-6.2-15.6-12.5-24.9-14.9c-8.2-2.1-16.6-2.6-25-2.1 c-1,4.7-7.2,4.4-9.7,0.9c-9.1,1.2-17.1,3.4-23.8,9.7c20-5.4,43.3-5.2,60.3,5.3c18.5,11.4,27.7,30.4,40.8,46.7 C307.6,418.8,308.8,411.5,305.9,404.4z"/><path fill="#14B6B9" d="M452.4,175c-1.6-1.1-3.4-2.1-5.2-2.8c-0.7-0.3-3.2-0.4-1.8-0.7c-3,0.7-5.5-1-6.6-3.2c0,0,0,0-0.1,0 c-1.4,2.2-3,4.4-5,6.3c-0.8,0.8-1.7,1.6-2.6,2.3c5.6,1.3,10.7,6.4,14.4,10.6c3.2,3.7,6.3,7.7,9,11.9c2.1-5.1,4-10.3,3.8-15.3 C458.2,179.7,455.9,177.5,452.4,175z"/><path fill="#14B6B9" d="M397.7,198.9c-13.8,8.7-34.2,7.2-46-4.1c-4.6,3-9.7,5.6-14.8,7.9c-3.9,1.8-7.9,3.4-11.9,5 c1.8,3,0.6,8.1-4,9c-6.9,1.3-7.6,12.5-7.2,17.8c0.3,3.5,0.8,7.6,2.8,10.4c0.6,0.9,0.5,0.8,1,1.2c0.1,0.1,0.2,0.2,0.3,0.2 c0.3,0.1,0.2,0,1.1-0.6c3.3-2.2,6.7-0.3,8,2.5c3.1-2.9,6.1-5.9,9.1-8.9c2.5-2.5,5.3-5.1,7.5-8c0,0,0-0.1,0-0.1 c1.4-11.4,20.1-11.9,28.1-8.6c5.9,2.5,10.8,6.7,14.6,11.8c1.2,1.6,2.3,3.2,3.4,4.9c0.3-0.1,0.6-0.2,1-0.3c5.5-1.3,9.3,4.2,6,8.8 c-0.6,0.8-1.1,1.5-1.6,2.3v0.1c0,2.8-1.8,4.7-3.9,5.4c-3.9,5.4-7.7,10.9-11.5,16.4c0.1,0,0.2,0.1,0.3,0.1 c2.3,0.6,4.6,1.2,6.9,1.5c4.7,0.8,9.3,1.6,14,0.4c11.5-3,20.4-10.4,24.8-21.6C434.5,230.1,417.1,208.4,397.7,198.9z"/><path fill="#BCBCBC" d="M381.4,246.6c-1-1.7-2.1-3.3-3.2-4.9c-2.1-2.8-4.6-5.8-7.7-7.5c-3.1-1.7-6-2.7-9.5-2.3 c-1.6,0.2-3.2,0.3-4.7,0.9c-0.2,0-0.3,0.1-0.5,0.2c0,0.1-0.1,0.2-0.1,0.3c-5.3,9.8-15.2,17.3-23.1,25 c-11.7,11.4-22.1,24.4-33,36.5c-11.6,12.9-23.4,25.5-35.3,38.1c-5.3,5.7-10.3,12-16.1,17.2c-0.7,0.6-1.5,1.2-2.3,1.9 c8.3,0.1,16.7,1.2,24.4,4.3c7.8,3.1,15.1,7.7,21.7,13.2c2.7-7.2,7.7-13.7,12.7-19.5c7.7-9.2,16.4-17.4,24-26.7 c19.5-23.7,36.4-49.3,54.2-74.3C382.2,248.1,381.8,247.3,381.4,246.6z"/><path d="M465.2,171.8c-3.4-3.9-8.2-7.8-13.5-9.8c25-18.7,17.4-64.2,4.6-89.4c-8.8-17.4-22.3-36.4-41.9-42.2 c-11.4-3.4-24.8-0.7-36,2.2c-5.3,1.4-10.5,3.2-15.9,4.2c-4.1,0.7-9.6,2.3-9.7,7.3c-19.1,4.3-36.2,21.6-46.3,36.9 c-1.8,2.8-3.5,5.6-5,8.5c-1.4,2.6-0.4,5,1.4,6.5c-7,13.2-3.6,30.7,2.6,43.7c-3.3,1.4-6.5,2.8-9.8,4.1 c-31.4,13.3-62.7,26.9-94.4,39.7c-9.1,3.7-18.2,7.3-27.5,10.6c-3.1,1.1-6.3,2.2-9.5,3.2c-0.7,0-1.4,0.2-2.2,0.5 c-0.3,0.1-0.5,0.2-0.8,0.3c-0.5,0.1-1.1,0.3-1.6,0.4c-1.7-1.2-3.3-2.5-5.1-3.6c-8.3-5.6-19.5-10.3-29.6-8c-0.2,0-0.4,0-0.6,0 c-12.8,0.5-26.6,11-34.2,21.5c-11.3,1.7-26.6,2.6-29.2,16c-0.1,0.6-0.1,1.2-0.1,1.8c0,0-0.1,0.1-0.1,0.1c-2.2,1.9-2.1,4.2-0.9,6 c-1.7,0.7-3.2,2.4-3.4,4.1c-3.4,26.2,6.8,53.6,21.3,75.1c10.6,15.6,28.9,37.2,50.4,31.6c6.2-1.6,10.2-4.8,12.7-9 c2-0.5,3.5-2.1,4.2-3.9c-0.2,0.9-0.5,1.4-0.6,1.6c0.1-0.2,0.5-0.5,1.2-1.1c1.6-1.3,3.4-2.5,5.1-3.7c3.3-2.3,6.7-3.6,10.6-4.7 c8.5-2.5,17.4-4.9,22.5-12.4c1.2-0.4,2.3-1.3,3-2.6c3.2-6.2,7.4-12,9.9-18.5c2.9-7.6,2.9-15.9,2.2-24c-0.1-0.9-0.2-1.7-0.3-2.6 c0.3-0.5,0.5-1.1,0.6-1.7c25.5-11.2,50.7-22.9,76.4-33.5c10.4-4.3,21-8.2,31.5-12.2c-3.9,6.3-5,14.9-4.2,22.4 c0.9,8.8,6.2,20.2,14.9,20.2c-10.6,11.1-20.5,23.2-30.7,34.6c-11.6,12.8-23.5,25.3-35.3,37.9c-5,5.3-9.8,10.8-15.2,15.7 c-2.4,2.1-5,4.5-7,7.2c-10.7,1-20.7,3.2-29.5,9.8c-17.5,13.2-25,36.6-26.1,57.6c-0.1,2.5-0.1,5,0,7.5c0,0.1,0,0.3,0,0.4 c-0.3,9,3,19.3,5.9,26.2c8.5,20.2,27,35.7,49.2,37.7c10.5,0.9,21.3-1.9,31.1-5.6c9.3-3.5,18.4-8.9,24.7-16.8 c0.3-0.4,0.6-0.8,0.8-1.2c1.9,0.8,4.1,0.6,5.8-1.6c13.6-17.5,32.2-40,25.4-63.8c-2.8-9.7-9.4-18.2-16.4-25.4 c0.9-9.3,9.9-18.3,15.7-24.8c7.5-8.5,15.5-16.5,22.7-25.3c12.1-14.9,23.2-30.6,34.2-46.3c1.4,0.7,3,1.2,4.7,1.7 c6,1.8,12.4,2.5,18.7,2.8c11.6,0.5,23.1-6.5,30.9-15.3c2.1-0.2,4.2-1.5,5-4.1c1.6-5.1,6.5-9.3,9.3-13.7 c3.6-5.7,7.7-10.6,10.7-16.7c3.1-6.3,5.4-13,7.6-19.8c0.8-0.9,1.3-2.1,1.2-3.5c1.2-3.6,2.4-7.2,3.8-10.7 C468.7,192.6,472.6,180.2,465.2,171.8z M388.9,41.3c8.5-1.7,18.7-2.5,26.8,1.2c15.2,6.8,25.7,24,32.4,38.4 c9.8,20.7,16.5,58.6-4.6,73c0.4-2.9,0.5-5.8,0.3-8.7c-1-22.9-11.3-44.2-23.9-62.8c-11-16.3-26.1-31.6-45.3-37.3 C379.3,43.7,384.1,42.3,388.9,41.3z M332.2,68c8.2-7.1,19.5-15,30.8-14.1c20.4,1.7,35.8,17.6,46.9,33.4 c11.8,16.8,20.4,35.2,22.6,55.8c0.6,5.8,0.2,11.1-1.7,15.9c-2.1,0.9-2.8,2.8-2.5,4.7c-1.3,1.8-2.8,3.6-4.7,5.2 c-3.8,3.3-8,6-12.2,8.8c2.1-9.4,1.7-19.8,0.5-28.4c-4.5-33.3-25.9-78.9-65.3-76.5c-8.6,0.5-17.6,2.6-25.6,6.6 C324.5,75.3,328.2,71.5,332.2,68z M313,100.2c4.5-8.2,14.7-12.2,23.1-14.5c7.9-2.1,17.5-3.3,25.3-0.3c7.6,2.8,13.8,8.5,18.8,14.7 c11.9,14.7,18.9,33.8,21.2,52.4c1,8.3,0.9,16.7-1.2,24.9c-2.2,8.3-7.7,13.3-15.9,15.5c-7.7,2-17.4,0.5-23.7-4.7 c6.3-5.8,11.1-13,13.3-21.9c2.3-9.1,1.8-19.9-3.9-27.7c-5.1-6.9-13.4-9.9-20.6-13.9c-2.4-1.4-4.7-0.7-6.1,0.9 c-4.1,0.3-8.9,2.7-12.1,3.9c-5.2,2-10.4,4.1-15.6,6.2C310.5,124.7,307,111.2,313,100.2z M133.5,322.1c-0.9,9.6-9.1,12.1-17.6,9.9 c-9.8-2.6-17.8-11.9-23.7-19.5c-15-19.1-26.9-45-25.3-69.8c3.8-1.1,4.3-6.1,1.9-8.9c0.1-0.1,0.4-0.2,0.7-0.2 c0.6-0.1,1.3,0.1,1.9,0.2c1.8,0.4,3.6,1.4,5.2,2.2c4.3,2.3,8.1,5.3,11.9,8.3c8.2,6.5,16.6,12.9,23.3,21 c7.7,9.3,13.4,20.3,17.2,31.7C131.6,304.9,134.3,313.6,133.5,322.1z M151,314.2c-2.4,1-4.6,2.4-6.7,3.8c-0.2-7.2-1.9-14.8-3.8-21 c-7-23-20.4-42.1-39.5-56.6c-6.7-5.1-16.9-15-26.8-17.3c2.1-1.3,5-1.9,7-2.3c3.7-0.8,9.2-0.4,13.1-1.8c1.7,1.5,4.1,2.1,6.5,0.5 c4-2.6,13.2,3.9,16.8,6.2c6.9,4.5,13.3,10.1,19,16c7.6,7.9,11.9,21.3,14.7,32c3.2,12.7,3.9,26,4,39.1 C153.8,313.2,152.3,313.7,151,314.2z M186,286.2c-1.5,3.5-3.5,6.7-5.4,10c-3.1,0-5.8,3.4-5.4,6.7c-1.8,3.3-5.1,5.3-8.9,6.7 c-0.2-13.9-1.5-27.7-5-41.2c-3.2-12.6-8.8-26.1-17.9-35.6c-7-7.2-15.1-13.6-23.7-18.9c-4.2-2.5-9.3-5.1-14.4-5.7 c1.1-1,2.3-1.9,3.5-2.8c3.1-2.4,6.7-4.9,10.6-6.3c1.2,0.7,2.6,0.8,4.3-0.1c8.9-4.5,18.5,0.7,26,5.6c1.2,0.8,2.4,1.6,3.6,2.5 c0.7,1.1,1.7,2,3.2,2.4c6.5,5.3,12.4,11.6,17.3,18.1c8.3,10.9,12.7,24.4,14.2,37.9C188.7,272.6,188.7,279.7,186,286.2z M266.8,218.8c-23.7,9.9-47,20.7-70.5,31.1c-2.7-10.1-7.2-19.8-13.3-28.2c-3.9-5.2-8.2-10.1-12.9-14.5c5.1-1.6,10.1-3.6,14.9-5.5 c14.4-5.4,28.7-11.3,42.9-17.2c30.5-12.7,60.9-26,91.5-38.6c6.3-2.6,12.6-5.1,19-7.5c1.9-0.7,3.9-1.4,5.8-2 c0.2-0.1,0.5-0.1,0.7-0.2c0.2,0,0.3,0,0.5,0c-0.1,0-0.2,0-0.3,0c0,0,0.1,0,0.1,0c0.4-0.1,0.1-0.1-0.2,0c-2.1-0.1-3.6-1.4-4.6-3.5 c1.5,2.9,4.5,3.7,7,3.1c5.2,2.6,10.8,4.9,14.2,9.6c4.6,6.3,2.8,16.9-0.1,23.6c-6.2,14.6-23.2,21.7-37,27.1 C305.1,203.7,285.8,210.8,266.8,218.8z M276.1,463.2c-6,7.7-15.9,11.8-24.9,14.7c-10.9,3.5-22,4.5-32.9,0.2 c-18.4-7.1-30.1-25.4-32.9-44.4c-0.4-2.9-0.7-6.2,0.2-8.8c0.9-0.2,1.8-0.8,2.6-1.6c6.7-7.2,17.7-9,27-10.1 c9.6-1.1,19.5-1.1,29.1,0.2c12.4,1.6,23.1,10.5,29.9,20.6C280.3,443,283.2,454.2,276.1,463.2z M291.3,449.3 c-1.1-15.1-12.6-30.2-24.8-38.5c-13.3-9-28.8-9.8-44.3-9.2c-11.3,0.4-24.2,2.1-34.3,8.1c-0.4,0-0.7,0.1-1.1,0.2 c-0.3,0.1-0.5,0.2-0.7,0.2c0.9-5.7,2.5-11.3,4.6-16.6c3.5,0,5-2.8,4.7-5.5c20.5-8.4,47.5-10.8,66.1,2 c16.7,11.5,25.5,30.9,38.3,46.2C297.3,440.9,294.3,445.2,291.3,449.3z M305.9,404.4c2.9,7.1,1.7,14.4-0.9,21.3 c-13.1-16.3-22.3-35.3-40.8-46.7c-17-10.5-40.2-10.7-60.3-5.3c6.7-6.4,14.7-8.6,23.8-9.7c2.5,3.5,8.7,3.8,9.7-0.9 c8.4-0.5,16.8,0,25,2.1c9.3,2.4,17.8,8.7,24.9,14.9C294.9,386.7,302.1,394.9,305.9,404.4z M328.4,323.1 c-7.6,9.3-16.3,17.6-24,26.7c-4.9,5.8-9.9,12.3-12.7,19.5c-6.5-5.4-13.9-10.1-21.7-13.2c-7.7-3.1-16.1-4.2-24.4-4.3 c0.8-0.7,1.6-1.3,2.3-1.9c5.8-5.2,10.8-11.5,16.1-17.2c11.9-12.6,23.7-25.2,35.3-38.1c10.9-12.1,21.4-25.1,33-36.5 c7.8-7.7,17.8-15.2,23.1-25c0-0.1,0.1-0.2,0.1-0.3c0.2-0.1,0.3-0.1,0.5-0.2c1.5-0.5,3.2-0.7,4.7-0.9c3.6-0.4,6.4,0.6,9.5,2.3 c3.1,1.7,5.6,4.7,7.7,7.5c1.2,1.6,2.2,3.2,3.2,4.9c0.4,0.7,0.8,1.4,1.2,2.2C364.9,273.8,347.9,299.4,328.4,323.1z M425.7,252.5 c-4.4,11.2-13.3,18.6-24.8,21.6c-4.7,1.2-9.3,0.4-14-0.4c-2.3-0.4-4.6-0.9-6.9-1.5c-0.1,0-0.2-0.1-0.3-0.1 c3.8-5.5,7.6-11,11.5-16.4c2.1-0.7,3.9-2.6,3.9-5.4v-0.1c0.5-0.8,1.1-1.5,1.6-2.3c3.3-4.6-0.5-10.1-6-8.8c-0.3,0.1-0.7,0.2-1,0.3 c-1.1-1.7-2.2-3.3-3.4-4.9c-3.8-5.1-8.7-9.3-14.6-11.8c-7.9-3.3-26.6-2.9-28.1,8.6c0,0,0,0.1,0,0.1c-2.2,2.9-5,5.5-7.5,8 c-3,3-6.1,5.9-9.1,8.9c-1.3-2.8-4.7-4.7-8-2.5c-0.9,0.6-0.9,0.7-1.1,0.6c-0.1,0-0.2-0.1-0.3-0.2c-0.5-0.4-0.4-0.3-1-1.2 c-2-2.8-2.5-6.9-2.8-10.4c-0.4-5.3,0.3-16.5,7.2-17.8c4.6-0.9,5.8-6,4-9c4-1.6,8-3.3,11.9-5c5.1-2.3,10.1-4.9,14.8-7.9 c11.8,11.3,32.2,12.8,46,4.1C417.1,208.4,434.5,230.1,425.7,252.5z M438.8,237.9c-1.2-18-13.3-34.8-29.3-45 c3.3-3.2,7.1-5.8,10.9-8.4c1.3,2.7,4.6,4.7,8,2.8c0,0,0.1,0,0.1,0c1.4,0.5,2.6,1.4,3.7,2.3c2.9,2.4,5.4,5.3,7.7,8.2 c3.5,4.5,7.1,9.6,9.5,14.8C446.8,221.4,443.7,230.2,438.8,237.9z M454.6,199.4c-2.7-4.2-5.8-8.2-9-11.9 c-3.7-4.3-8.8-9.3-14.4-10.6c0.9-0.7,1.7-1.5,2.6-2.3c2-1.9,3.7-4,5-6.3c0,0,0,0,0.1,0c1.1,2.2,3.6,3.9,6.6,3.2 c-1.4,0.3,1.1,0.4,1.8,0.7c1.8,0.7,3.6,1.7,5.2,2.8c3.6,2.5,5.9,4.7,6,9.1C458.6,189.1,456.7,194.3,454.6,199.4z"/></svg>