<svg xmlns="http://www.w3.org/2000/svg"  viewBox="0 0 512 512" width="100px" height="100px"><path fill="#BCBCBC" d="M189 409.2c-10.5-.6-21-1.4-31.5-2.2-8.1-.7-16.3-1.4-24.4-2.2.4 1.7.7 3.5 1.1 5.2 2.6 12.6 4.8 25.3 5.5 38.1.1.4.2.9.2 1.4v2.7c9.6 1.6 19.4 2.1 28.7 2.7 10.3.6 20.7.9 31 1.1C194.6 440.8 191.4 425.1 189 409.2zM184.5 372.5c-1.7-16.1-3.7-32-4.7-48.1-8.9.1-17.8.3-26.7.5-11.9.2-23.9.3-35.8.1 2.4 13 5.2 26 7.6 39 1.8 9.9 3.8 19.8 5.8 29.6 18.9 1.8 37.8 3.3 56.7 4.6C186.3 389.6 185.4 381 184.5 372.5zM275.8 371.5c-.2-14.9-1.1-29.8-1.9-44.7-8.3-.1-16.6-.3-24.9-.6-16-.7-32-1.9-48.1-1.9-3.4 0-6.8 0-10.1 0 1 15.3 2.9 30.5 4.5 45.8 1 9.5 2.1 19.2 3.3 28.8 2.6.2 5.2.3 7.8.5 23.4 1.3 46.9.1 70.4-1.9C276.4 388.7 275.9 380 275.8 371.5zM122.7 408.6c-.3-1.6-.7-3.3-1-4.9-2.8-.3-5.6-.6-8.3-.9-10.5-1.1-21-2.5-31.2-5.4 3.6 13.6 8.7 26.5 18.3 36.5 7.8 8.3 17.7 13.1 28.2 16C128.1 435.9 125.6 422.2 122.7 408.6zM272.8 273.2c-27.8-.6-55.7-1.4-83.5-1.9 0 14 .3 28 .9 42 6.5 0 12.9 0 19.4.1 16.2.3 32.3 1.7 48.5 2.2 5.1.1 10.2.2 15.3.2C272.7 301.6 272.3 287.4 272.8 273.2z"/><path fill="#EF4823" d="M302.3,56.1c-10.9-4.6-22.1-8.9-33.7-11.3c-10.8-2.2-33.1-9.1-37.7,5.2c0.6,1.6,0.3,3.7-0.8,5.3c0.6,11.6,18.9,16.4,27.6,19.4c7.8,2.7,15.3,5.7,23.4,7.3c7.8,1.6,15.7,2.9,23.3,5.3c0.1-0.4,0.2-0.8,0.4-1.2c3.7-8,1.5-18.6,6.6-25.6C308.4,58.9,305.4,57.4,302.3,56.1z"/><path fill="#BCBCBC" d="M277.3 408.3c-7.6.6-15.3 1.1-23 1.5-18.1.9-36.1.7-54.1 0 2.1 13.5 4.9 26.8 8.8 39.8.1.1.2.2.3.4 1.6 1.9 2.1 4 2.3 6.3 17.3.1 34.7-.1 51.9-.2 2.5 0 5 0 7.5-.1 0-2.2 1.7-4 3.8-4.8C277.6 437.2 277.8 422.7 277.3 408.3zM335.2 70.7c-1-1.4-2.5-2.8-4.2-3.8-2.8-.2-5.5-.7-8.1-1.6-1.9.6-3.4 2.1-4 5-1.1 4.9-1.3 10-2.4 14.9 1.6.7 2.9 2.1 3.2 4.3.1.6.9.5 2.3 0 3.1-1 6-2.5 8.6-4.5-1.8-1.3-3.6-2.8-5.1-4.5-4.6-5.2 2.6-13.6 7.3-8.3 1.4 1.5 2.9 2.8 4.5 4C337.3 74.3 336.3 72.2 335.2 70.7zM113.6 362.9c-2.4-12.7-5.1-25.4-7.5-38.2-15-.5-30-1.7-44.9-3.9 4.2 11.6 8.2 23.3 11.5 35.2 2.5 9.1 4.3 18.9 6.5 28.8.2.1.4.1.5.2 10.8 4.2 22.6 5.6 34.1 6.8 1.9.2 3.7.4 5.6.6C117.4 382.6 115.5 372.8 113.6 362.9zM100.3 271.9c0-.6.1-1.1.2-1.6-13.6.1-27.2.5-40.7.8-5.6.1-11.4.2-17-.5 4.5 13.2 9.5 26.3 14.4 39.4.9-.4 2-.6 3.2-.4 14.5 2.3 29.2 3.6 43.8 4.1C102 299.9 100.4 286 100.3 271.9zM178.3 271.9c0-.3 0-.6.1-.9-22.4-.4-44.8-.7-67.1-.7 0 .2.1.5.1.8.1 14.5 1.8 28.7 4.1 42.9 21.3.3 42.6-.3 63.8-.6C178.6 299.5 178.3 285.7 178.3 271.9zM383 274.1c-7.6.1-15.2.2-22.7.2 0 .4 0 .8-.1 1.2-2.4 12.1-3.9 24.3-5.1 36.6 16.2-1.4 32.3-3.3 48.4-5.4 3.1-.4 6.1-.6 9.2-.6 1.5-10.9 3.2-21.7 5.1-32.6C406.2 273.7 394.6 273.9 383 274.1zM414.1 399.3c-2.2.1-4.3.1-6.5.1-4.4 17.4-9.5 34.6-14.7 51.7 2.2-.4 4.4-.9 6.6-1.5 6.2-1.7 12.3-4.1 17.4-8.3 4.5-3.7 7.5-9.4 9.8-14.6 4.2-9.5 6.4-19.6 8.7-29.7C428.7 399.4 420.4 399.1 414.1 399.3zM448.1 317.5c-7 .4-14 .2-21 0-1.6 0-3.2-.1-4.8-.1-2.3 17-4.6 34-7.7 50.9-1.3 6.8-2.7 13.5-4.3 20.1 1.4 0 2.7 0 4.1-.1 4.5-.2 9-.3 13.4-1 1.3-.2 2.7-.4 4-.8 1.1-.3 2.2-1 1.4-.2 1.5-1.4 3.4-1.7 5-1.4 3-11.5 6.8-22.7 10.9-33.8 4.5-12.4 9.3-24.8 13.3-37.3C458.4 316.5 452.9 317.2 448.1 317.5zM461.6 273.8c-10.8.6-21.8-.1-32.6-.2-2 10.9-3.7 21.8-5.2 32.8 3 .1 5.9.2 8.9.3 5.2.1 10.5.2 15.7-.2 2.8-.2 6.2-.4 8.4-2 3.2-2.4 6.6-.5 7.9 2.4 3.3-11.2 6-22.5 7.3-34.1C468.3 273.3 464.7 273.6 461.6 273.8zM481 242.7c-3.6-3-8.6-3.5-13-4.2-3-.5-6-1.1-8.8-2.1-.2 0-.5 0-.7 0-15.2 0-30.4.9-45.6 1.7-32.7 1.7-65.4 1.4-98.1 1.9-2.4 0-4.7.1-7.1.1-2.9 3.6-5.9 7.3-8.8 10.9 0 .5 0 1-.1 1.5 0 .1 0 .3 0 .4-.1 3.3-1 6.8-2.7 9.7 5.6.1 11.3.2 16.9.2 33 .2 65.9 0 98.8-.3 14.9-.1 29.8.7 44.6.3 7.5-.2 15.6-.5 22.5-3.8 2.4-1.1 5-3 5.4-5.8C484.8 250.2 483.6 244.9 481 242.7zM296.2 273.7c-4.2-.1-8.4-.2-12.5-.3-.5 14.1 0 28.2.7 42.3 7.6-.1 15.2-.2 22.9-.5 12.3-.5 24.7-1.2 37-2.2 1.1-13 2.6-25.9 5-38.7C331.6 274.3 313.9 274 296.2 273.7zM216.5 240.5c-33.1-.6-66.3-2.1-99.4-3.2-24-.8-47.9-.8-71.9-.8-.8.8-1.9 1.4-3.4 1.5-5.1.3-13 8.2-11.2 13.8 1.6 4.9 6.4 6.7 11.1 7.5 13.9 2.5 29 .4 43.1.2 43.6-.6 87.4-.1 130.9 1 19.8.5 39.6 1.2 59.4 1.8-.9-1.6-1.5-3.3-1.7-5.1-.7-6.4 3.1-12.3 8.8-15 2.7-1.3 6-1.6 8.9-.7.4.1.8.3 1.2.4.4-.5.8-1 1.1-1.4C267.7 240.8 242.1 241 216.5 240.5zM354 323.2c-1.4 16.1-2.5 32.3-4.3 48.3-.7 6.3-1.3 12.7-1.8 19.2 12.8-1.1 25.7-2 38.5-2.2 4.2 0 8.4 0 12.6 0 1.9-8 3.6-16 5.1-24.1 2.8-15.5 4.9-31.1 7.1-46.8C392 318.4 373.1 321.4 354 323.2zM386.3 399.5c-11.3.2-22.7 1.3-34 2.2-1.8.1-3.5.3-5.3.5-1.6 17.9-3.9 35.8-10.9 52.5 8.6-.3 17.2-.7 25.8-1.3 5.6-.3 11.3-.5 17-.8.7-.4 1.4-.7 2.3-.7 5.2-17.4 10.5-34.8 15.1-52.4C392.9 399.4 389.6 399.5 386.3 399.5zM284.9 326.7c.9 15.9 1.8 31.9 1.8 47.8 0 7.3.3 14.6.7 21.9 5.7-.5 11.3-1 16.9-1.5 10.8-1 21.6-2.2 32.4-3.2.6-8.1 1.3-16.2 2.3-24.1 1.9-14.4 3-29 4.1-43.5C323.9 325.6 304.4 326.6 284.9 326.7zM288 407.5c.6 16.2.7 32.5-2.8 48.3 13.3-.1 26.6-.3 39.9-.7-.8-1.2-1.2-2.8-1.2-4.6-.1-3.1 1.9-4.9 4.3-5.5 4.7-13.4 6.6-27.5 7.8-41.7C319.9 404.6 303.9 406.1 288 407.5z"/><path fill="#010101" d="M484.5,231.8c-7.6-4.7-17.4-3.1-25.3-7.2c-2.5-1.3-4.7-0.6-6.1,1c-30.2,0.2-60.3,2.9-90.5,3c-15.3,0.1-30.7,0.3-46,0.5c18.3-22.7,36.3-45.7,49.1-72.1c7.9-16.3,12.8-36.4,4.4-53.3c-3.9-7.8-10-14.3-17.4-18.9c-1.7-1-3.4-1.9-5.2-2.8c1-3.1,0.9-6.5,0.1-10.3c-2.3-10.6-13.5-18.4-24-17.4c-2.5-1.1-4.9-2.5-7.2-3.7c-5.7-3-11.8-5.3-17.7-7.7C287,38.2,275.2,35,263,32.4c-8.8-1.8-17.6-3.3-26.4-1.1c-7.9,1.9-13.8,8.5-16.3,16c-14.6,2-25,14.8-32.7,27c-9.6,15.4-15.9,32.7-21.9,49.7c-9.5,27.1-18,54.7-28.8,81.3c-1.7,4.2-3.5,8.4-5.6,12.5c-0.3,0.7-0.7,1.3-1.1,2c-0.2,0.3-0.3,0.6-0.5,0.9c0,0,0,0,0,0.1c0,0.1-0.1,0.1-0.2,0.2c-0.1,0.2-0.3,0.3-0.4,0.5c-2.2,0.9-3.3,3-3.2,5.1c-19.6-0.6-39.3-1-59-1H40.9c-2.1,0-3.5,1-4.2,2.3c-8.7,2.8-15.8,11.8-17.1,20.5c-1.4,8.6,4.9,16,12.4,19.4c-0.6,1.1-0.7,2.5-0.2,4.1c9.9,29.4,22.2,58,30.7,87.9c7.7,26.9,9.5,56.2,27.7,78.8c16,20,42,24.7,66.2,26.6c30.7,2.4,61.8,1.9,92.6,1.9c32.8,0,65.7-0.6,98.5-1.9c11.3-0.4,22.6-0.8,33.9-1.7c1,0.4,2.2,0.9,2.6,1c2,0.5,3.8-0.3,5-1.7c12.2-1.3,24.4-4.6,34.3-12.2c9.7-7.4,14.6-20.2,18.1-31.4c3.7-11.9,5.6-24.2,8.9-36.2c7.8-28,20.4-54.3,27.8-82.4c2.7-10.1,4.5-20.5,5.3-31c0-0.1,0-0.2,0-0.2c6.5-2.9,11.5-7.7,12.1-15.5C496.1,245.1,491.9,236.4,484.5,231.8z M318.9,70.4c0.7-2.8,2.2-4.4,4-5c2.6,0.8,5.3,1.4,8.1,1.6c1.7,1,3.2,2.3,4.2,3.8c1.1,1.5,2.1,3.6,2.2,5.6c-1.6-1.1-3.2-2.4-4.5-4c-4.7-5.3-11.9,3-7.3,8.3c1.5,1.7,3.2,3.2,5.1,4.5c-2.6,2-5.5,3.5-8.6,4.5c-1.5,0.5-2.2,0.6-2.3,0c-0.3-2.2-1.6-3.6-3.2-4.3C317.7,80.4,317.8,75.3,318.9,70.4z M230.9,49.9c4.6-14.3,26.9-7.4,37.7-5.2c11.6,2.4,22.8,6.7,33.7,11.3c3.1,1.3,6.2,2.9,9.3,4.4c-5.2,7-3,17.6-6.6,25.6c-0.2,0.4-0.3,0.8-0.4,1.2c-7.6-2.4-15.5-3.7-23.3-5.3c-8.1-1.6-15.6-4.6-23.4-7.3c-8.7-3-27-7.8-27.6-19.4C231.2,53.6,231.5,51.6,230.9,49.9z M141,223.2c3.2-5.8,5.6-12,8-18.2c6.3-16.2,11.8-32.8,17.3-49.3c3.6-10.7,7.3-21.2,11.1-31.8c6.1-17.2,12.9-35.1,23.6-50c4.3-6,10.6-13.4,18.3-15.5c2.2,12.4,16.1,19.7,27.5,24c8,3,16.1,6.3,24.3,8.6c11.5,3.2,23.7,3.8,34.7,8.5c2.7,1.1,5.1,0.1,6.5-1.6c4.7,4.3,12.7,3.1,19.1-0.3c3.4-1.8,6.6-4,9.4-6.6c0.7,0.4,1.4,0.7,2.1,1.1c7.5,3.8,13.5,9,17.3,16.6c8,16.1-0.1,35.2-7.7,49.7c-13.4,25.9-31.9,48.4-50.3,71c-12.5,0.2-25,0.4-37.4,0.5c-42.1,0.4-84.1-1.5-126.1-2.8C139.7,225.7,140.4,224.4,141,223.2z M57.2,310c-4.9-13.1-9.9-26.2-14.4-39.4c5.6,0.7,11.4,0.6,17,0.5c13.6-0.3,27.2-0.7,40.7-0.8c-0.1,0.5-0.2,1-0.2,1.6c0.1,14.1,1.6,28,3.9,41.8c-14.7-0.6-29.3-1.8-43.8-4.1C59.2,309.4,58.1,309.6,57.2,310z M79.2,384.9c-2.1-9.9-3.9-19.8-6.5-28.8c-3.3-11.9-7.3-23.6-11.5-35.2c14.9,2.2,29.9,3.4,44.9,3.9c2.3,12.8,5.1,25.5,7.5,38.2c1.9,9.9,3.8,19.7,5.8,29.5c-1.9-0.2-3.7-0.4-5.6-0.6c-11.4-1.2-23.3-2.6-34.1-6.8C79.6,385,79.4,384.9,79.2,384.9z M179.2,313.4c-21.3,0.3-42.6,1-63.8,0.6c-2.3-14.2-4-28.4-4.1-42.9c0-0.3,0-0.5-0.1-0.8c22.4,0,44.8,0.3,67.1,0.7c0,0.3-0.1,0.6-0.1,0.9C178.3,285.7,178.6,299.5,179.2,313.4z M100.4,433.8c-9.5-10-14.6-22.9-18.3-36.5c10.1,3,20.7,4.4,31.2,5.4c2.8,0.3,5.6,0.6,8.3,0.9c0.3,1.6,0.7,3.3,1,4.9c2.9,13.6,5.4,27.3,6,41.3C118.1,446.9,108.3,442.1,100.4,433.8z M124.9,363.9c-2.4-13-5.2-26-7.6-39c11.9,0.2,23.9,0.1,35.8-0.1c8.9-0.2,17.8-0.3,26.7-0.5c1,16.1,3,32.1,4.7,48.1c0.9,8.5,1.8,17.1,3,25.6c-18.9-1.2-37.8-2.8-56.7-4.6C128.7,383.7,126.8,373.8,124.9,363.9z M168.5,454.9c-9.3-0.5-19.1-1.1-28.7-2.7v-2.7c0-0.5-0.1-1-0.2-1.4c-0.6-12.8-2.9-25.5-5.5-38.1c-0.4-1.7-0.7-3.5-1.1-5.2c8.1,0.8,16.3,1.5,24.4,2.2c10.5,0.9,21,1.6,31.5,2.2c2.4,15.9,5.6,31.6,10.5,46.8C189.2,455.9,178.8,455.5,168.5,454.9z M273.4,315.8c-5.1,0-10.2-0.1-15.3-0.2c-16.2-0.4-32.3-1.9-48.5-2.2c-6.5-0.1-12.9-0.1-19.4-0.1c-0.6-14-0.9-28-0.9-42c27.8,0.6,55.7,1.3,83.5,1.9C272.3,287.4,272.7,301.6,273.4,315.8z M273.9,326.8c0.8,14.9,1.7,29.8,1.9,44.7c0.1,8.5,0.6,17.2,1,25.9c-23.4,1.9-47,3.2-70.4,1.9c-2.6-0.1-5.2-0.3-7.8-0.5c-1.3-9.6-2.3-19.2-3.3-28.8c-1.6-15.3-3.5-30.5-4.5-45.8c3.4,0,6.8,0,10.1,0c16.1,0,32,1.2,48.1,1.9C257.3,326.5,265.6,326.7,273.9,326.8z M274.9,451.1c-2.1,0.8-3.7,2.6-3.8,4.8c-2.5,0-5,0-7.5,0.1c-17.2,0.1-34.6,0.3-51.9,0.2c-0.2-2.3-0.8-4.4-2.3-6.3c-0.1-0.1-0.2-0.2-0.3-0.4c-4-13-6.7-26.3-8.8-39.8c18,0.8,36,0.9,54.1,0c7.7-0.4,15.3-0.9,23-1.5C277.8,422.7,277.6,437.2,274.9,451.1z M273.3,257.1c0.2,1.8,0.8,3.5,1.7,5.1c-19.8-0.6-39.6-1.3-59.4-1.8c-43.6-1-87.4-1.6-130.9-1c-14,0.2-29.1,2.2-43.1-0.2c-4.7-0.8-9.5-2.6-11.1-7.5c-1.8-5.5,6-13.4,11.2-13.8c1.5-0.1,2.6-0.7,3.4-1.5c24,0,48,0,71.9,0.8c33.1,1.1,66.3,2.6,99.4,3.2c25.6,0.5,51.2,0.2,76.8-0.1c-0.4,0.5-0.8,1-1.1,1.4c-0.4-0.2-0.8-0.3-1.2-0.4c-2.9-0.9-6.2-0.6-8.9,0.7C276.5,244.9,272.6,250.8,273.3,257.1z M283.7,273.4c4.2,0.1,8.4,0.2,12.5,0.3c17.7,0.4,35.3,0.6,53,0.6c-2.5,12.8-3.9,25.7-5,38.7c-12.3,1-24.6,1.7-37,2.2c-7.6,0.3-15.2,0.5-22.9,0.5C283.7,301.6,283.2,287.5,283.7,273.4z M411.1,317.6c-2.1,15.6-4.3,31.3-7.1,46.8c-1.5,8.1-3.2,16.1-5.1,24.1c-4.2,0-8.4,0-12.6,0c-12.8,0.1-25.6,1-38.5,2.2c0.5-6.4,1.1-12.8,1.8-19.2c1.8-16,2.9-32.2,4.3-48.3C373.1,321.4,392,318.4,411.1,317.6z M355.1,312.1c1.2-12.3,2.8-24.5,5.1-36.6c0.1-0.4,0.1-0.8,0.1-1.2c7.6,0,15.1-0.1,22.7-0.2c11.6-0.2,23.2-0.4,34.8-0.5c-2,10.8-3.6,21.7-5.1,32.6c-3.1,0-6.2,0.2-9.2,0.6C387.4,308.9,371.2,310.7,355.1,312.1z M343.3,324.1c-1.2,14.5-2.2,29.1-4.1,43.5c-1.1,7.9-1.7,16-2.3,24.1c-10.8,1.1-21.7,2.2-32.4,3.2c-5.6,0.5-11.3,1-16.9,1.5c-0.3-7.4-0.7-14.7-0.7-21.9c-0.1-16-1-31.9-1.8-47.8C304.4,326.6,323.9,325.6,343.3,324.1z M328.1,444.9c-2.3,0.6-4.3,2.5-4.3,5.5c0,1.9,0.4,3.4,1.2,4.6c-13.3,0.4-26.6,0.6-39.9,0.7c3.5-15.8,3.5-32,2.8-48.3c16-1.3,32-2.9,47.9-4.4C334.6,417.3,332.8,431.5,328.1,444.9z M381.2,451.9c-0.9,0-1.7,0.3-2.3,0.7c-5.7,0.3-11.4,0.4-17,0.8c-8.6,0.5-17.2,0.9-25.8,1.3c7-16.7,9.3-34.6,10.9-52.5c1.8-0.1,3.5-0.3,5.3-0.5c11.3-0.9,22.7-2,34-2.2c3.3-0.1,6.6-0.1,10-0.1C391.7,417,386.5,434.5,381.2,451.9z M426.6,426.8c-2.3,5.2-5.3,10.9-9.8,14.6c-5.1,4.1-11.1,6.6-17.4,8.3c-2.2,0.6-4.4,1.1-6.6,1.5c5.2-17.2,10.3-34.4,14.7-51.7c2.2,0,4.3,0,6.5-0.1c6.4-0.2,14.6,0.1,21.2-2.2C433.1,407.2,430.8,417.3,426.6,426.8z M449.1,351.1c-4.1,11.1-7.9,22.4-10.9,33.8c-1.7-0.3-3.5,0-5,1.4c0.8-0.7-0.3-0.1-1.4,0.2c-1.3,0.4-2.6,0.6-4,0.8c-4.4,0.6-8.9,0.8-13.4,1c-1.4,0-2.7,0.1-4.1,0.1c1.6-6.7,3-13.4,4.3-20.1c3.2-16.9,5.4-33.9,7.7-50.9c1.6,0,3.2,0,4.8,0.1c7,0.2,14,0.4,21,0c4.8-0.3,10.2-0.9,14.3-3.6C458.4,326.4,453.6,338.7,449.1,351.1z M464.6,306.8c-1.3-2.8-4.7-4.7-7.9-2.4c-2.2,1.6-5.6,1.7-8.4,2c-5.2,0.5-10.5,0.3-15.7,0.2c-3-0.1-5.9-0.2-8.9-0.3c1.5-11,3.2-21.9,5.2-32.8c10.9,0.1,21.8,0.8,32.6,0.2c3.1-0.2,6.7-0.5,10.3-1.1C470.6,284.3,467.9,295.6,464.6,306.8z M484.3,253.4c-0.4,2.8-3,4.6-5.4,5.8c-6.9,3.2-15,3.6-22.5,3.8c-14.8,0.3-29.7-0.5-44.6-0.3c-33,0.3-65.9,0.6-98.8,0.3c-5.6,0-11.3-0.1-16.9-0.2c1.7-2.9,2.6-6.4,2.7-9.7c0-0.1,0-0.3,0-0.4c0-0.5,0.1-1,0.1-1.5c2.9-3.7,5.8-7.3,8.8-10.9c2.4,0,4.7-0.1,7.1-0.1c32.7-0.5,65.4-0.2,98.1-1.9c15.2-0.8,30.4-1.7,45.6-1.7c0.2,0,0.5,0,0.7,0c2.9,1,5.8,1.6,8.8,2.1c4.4,0.8,9.5,1.2,13,4.2C483.6,244.9,484.8,250.2,484.3,253.4z"/></svg>