<svg xmlns="http://www.w3.org/2000/svg"  viewBox="0 0 512 512" width="100px" height="100px"><path fill="#BCBCBC" d="M351.5 214.5c.4-.4.9-.8 1.5-1.2 3.3-1.9 6.7-2.8 10.3-4 4.2-1.4 6.9-4.2 9.4-7.8 4.8-6.6 9.9-13.6 13.4-21.1 6.7-14.6 7.5-30.4 7.1-46.2-.5-19-.5-38-.5-57.1 0-4 .3-8 .4-12 .1-2.1.7-7.2-1.2-8.8-1.9-1.6-4.4-2.5-7.1-3.2.9 7.6 1.3 15.3 1.2 23-.2 20.3 0 41.2-8.1 60.2-2.6 6.1-6.7 14.2-13.6 16.3-7.8 2.3-15.5-3.2-19.2-9.9-5.1-9.3-5.7-20.3-6-30.7-.3-9.4-1.1-18.7-1.4-28.1-.4-10.2-.1-21.7-4.3-31.2-.9-2.1-2.1-4-3.8-5.6 0 0 0 0 0 0-.3 1.5-.5 2.9-.5 4.4-.3 10.6 1.5 21.2 1.8 31.7.4 13.8 1.7 27.6 2.1 41.4.5 17.8-2.6 43-24.7 45.9-22.7 3-24.5-24.2-26-40.1-2.9-30.4-6.5-60.8-10.1-91.1h-2.8c.1.5.1 1 .1 1.6-.5 8.6 1.1 17.1 2.2 25.6 1 8.4 1.3 17 1.8 25.4 1.1 16.7 1.8 33.6 3.4 50.3.8 8.1 1.8 16.2 3.6 24.1 1.5 6.6 3 14.8 6.8 20.5 2.5 3.8 5.1 7.6 8.2 10.9 1.6 1.8 3.3 3.6 5.2 5.1 0 0 0 0 0 0 1.6-.5 3.4-.3 4.9.9 1 .6 1.7 1.5 2.2 2.6 12.2 17 13.1 38.4 11.2 58.7-2.2 23.7-5.1 47.6-8.3 71.2-3.5 25.8-12 51.3-11.3 77.5.5 19.6 8.1 43.4 29.2 49.4 23.2 6.6 45.6-8.6 53.4-30.4 6.9-19.5 3.5-41.8-1.7-61.2-6.2-23-16.2-44.6-23.7-67.2-9.2-27.8-14-56.2-9.9-85.4C347 215.9 349.2 214.5 351.5 214.5zM373.4 403.9c-4.8 17.4-21.7 26.3-28.5 42.4-2.8 6.5-12.6 1.6-9.9-4.9 6.3-14.9 23.2-23.9 27.5-39.6C364.5 395.1 375.3 397.1 373.4 403.9zM357.4 389.9c-1.3 7-5.4 12.7-10.1 18-4 4.5-9.2 9.1-10.9 15-1.9 6.8-12.8 4.7-10.8-2.1 1.9-6.8 6.1-12.1 10.8-17.2 4.2-4.7 9-9.4 10.2-15.8C347.9 380.9 358.7 383 357.4 389.9zM344.1 375.5c-4.7 5.5-11.1 10.1-14.2 16.8-3 6.4-12.8 1.5-9.9-4.9 3.6-7.7 10.4-12.9 15.8-19.2C340.5 362.9 348.8 370.1 344.1 375.5zM226.3 59.9c-5.1-8.8-11.8-16.1-21.5-19.9-9.7-3.8-20.5-4.6-30.8-3.4-20.9 2.3-40.9 11.4-48.9 31.9-8.1 20.7-7.3 44.7-4.4 66.3 1.3 9.7 3.5 19.3 6.5 28.6 2.9 8.9 6.8 20 15 25.4 1.6.3 3.2 1.4 4 3.3 20.9 48.4 20.3 102.9 12 154.1-2.3 14.1-5 28.1-7.5 42.2-2.3 13.3-4.8 26.8-4.7 40.3 0 16.8 2.9 40 21.5 46.4 20.7 7.2 36.5-15.6 42.5-32 9.2-25.3 6.7-53.2 1.6-79.1-5.4-27.4-14.4-54-18.4-81.7-4.3-29-2.2-57.5 8.9-84.8.6-1.4 1.5-2.3 2.5-2.7 0-1.6.6-3.2 2.3-4.4 21.1-14.6 32.4-36.1 32.7-61.8C239.9 105.8 238 80 226.3 59.9zM160.1 431.4c4.5-8.6 12.3-15.7 15.5-25-1.6 2.5-3.4 4.9-5.5 7-2.1 2.1-5.4 2.6-7.8.5-2.2-1.9-2.6-5.6-.5-7.8 2.8-2.9 4.4-5.3 6.2-8.8 2.7-5.4 10.2-2.7 10.5 2.1 3.5-2.6 9.9-.1 8.8 5.4-2.4 12.5-11.8 20.6-17.5 31.4C166.6 442.6 156.8 437.7 160.1 431.4zM199.9 422.3c-2.5 5.7-6.6 10.6-10.6 15.4-3.4 4.1-8.1 8.8-9 14.2-1.1 7-11.9 4.9-10.8-2.1 2.1-13 15.4-20.8 20.5-32.4C192.9 410.9 202.7 415.9 199.9 422.3zM195.1 169.5c-8.2 5-17.8 7-26.9 3.1-7.9-3.4-14.4-10-18.6-17.5-7.2-12.8-9.2-26.6-7.8-41.1 2.3-24.5 16.2-58.5 46.7-47 6.6 2.5 1.7 12.3-4.9 9.9-21.8-8.2-29.4 22.9-30.9 38.3-1 10.3-.2 20.8 4.2 30.3 6 12.8 18.1 23.4 32.1 15C195 156.7 201.2 165.8 195.1 169.5z"/><path d="M212.4,199.9c0.2-0.1,0.5-0.3,0.7-0.4c19.9-13.8,33.5-33.9,36.7-58.1c2.9-22.1,0.3-46.5-5.9-67.7c-3.1-10.5-7.9-20.8-15-29.3c-6.7-8-15.2-13.1-25.1-16.2c-20.4-6.4-44.1-2.5-62.8,7c-30.2,15.3-34.2,52.6-32.8,82.8c0.6,14.5,3,28.8,6.8,42.8c3.8,14,9.5,29.3,22,37.7c11.3,27.4,15.4,56.7,15.7,86.2c0.3,32.4-6.1,64.2-11.7,96c-4.7,27-12.1,59.8,1.4,85.4c8.8,16.6,26.7,25.3,44.9,19c21-7.3,31.9-30.5,36.7-50.5c5.9-24.4,2.9-50.3-2-74.6c-5.2-25.8-13.3-50.8-17.5-76.8c-4.4-27.4-3-54.9,7.5-80.8C212.3,201.5,212.4,200.7,212.4,199.9z M204.6,194.7c-1,0.5-1.9,1.3-2.5,2.7c-11.1,27.3-13.2,55.8-8.9,84.8c4.1,27.7,13.1,54.3,18.4,81.7c5.1,25.9,7.6,53.8-1.6,79.1c-6,16.4-21.7,39.2-42.5,32c-18.6-6.5-21.5-29.6-21.5-46.4c0-13.5,2.4-27,4.7-40.3c2.5-14.1,5.2-28.1,7.5-42.2c8.3-51.1,8.9-105.7-12-154.1c-0.8-1.9-2.4-3-4-3.3c-8.2-5.4-12.1-16.5-15-25.4c-3-9.3-5.2-18.9-6.5-28.6c-2.8-21.7-3.7-45.7,4.4-66.3c8-20.5,28-29.6,48.9-31.9c10.3-1.1,21.1-0.3,30.8,3.4c9.7,3.8,16.4,11,21.5,19.9c11.7,20.1,13.6,45.9,13.3,68.7c-0.3,25.7-11.6,47.2-32.7,61.8C205.2,191.5,204.5,193.1,204.6,194.7z"/><path d="M188.9 160.3c-14 8.5-26.1-2.2-32.1-15-4.4-9.5-5.2-20-4.2-30.3 1.5-15.4 9.1-46.4 30.9-38.3 6.6 2.5 11.5-7.4 4.9-9.9-30.5-11.5-44.3 22.5-46.7 47-1.4 14.5.6 28.3 7.8 41.1 4.2 7.4 10.7 14.1 18.6 17.5 9.1 3.9 18.7 1.9 26.9-3.1C201.2 165.8 195 156.7 188.9 160.3zM190.1 417.4c-5 11.6-18.4 19.4-20.5 32.4-1.1 7 9.7 9.1 10.8 2.1.9-5.4 5.6-10.1 9-14.2 3.9-4.8 8.1-9.7 10.6-15.4C202.7 415.9 192.9 410.9 190.1 417.4zM178.6 399.6c-.3-4.8-7.8-7.5-10.5-2.1-1.8 3.6-3.4 5.9-6.2 8.8-2.1 2.1-1.7 5.9.5 7.8 2.3 2.1 5.7 1.6 7.8-.5 2.1-2.1 3.9-4.5 5.5-7-3.2 9.2-11 16.3-15.5 25-3.3 6.3 6.6 11.2 9.9 4.9 5.7-10.8 15-18.9 17.5-31.4C188.5 399.5 182 397 178.6 399.6zM366.9 300.7c-8.5-25.1-13-51.1-9.8-77.5.6-.1 1.3-.3 1.9-.7 3.2-1.8 7.1-2.5 10.5-3.8 4.2-1.6 7.5-5.2 10.3-8.6 5.8-7 11.1-15.3 15.2-23.3 8.4-16.5 9.3-35.3 8.9-53.4-.5-20.7-.9-41.4-.5-62.1.2-7.8 1.8-16.1-3.9-22.5-4.8-5.4-12.9-5.5-19.2-7.8-3.5-1.3-8.8.8-7.9 5.4 2.7 15 2.6 30.2 2 45.3-.4 9.7-.6 19.2-2.9 28.6-1.7 6.8-4 14.5-8.5 20-1.3 1.6-2.6 2.4-3.2 2.2-3.4-1.2-5.8-5.3-7-8.5-3.7-9.7-2.9-21.1-3.2-31.3-.3-9.5-1.1-19.1-1.6-28.6-.6-10.2-1.7-21-7.1-30-3.8-6.3-13-13.4-19.4-6.1-4.5 5.1-4 14.4-3.6 20.7.6 12.4 1.7 24.6 2.1 37 .3 11.9 1.9 23.7 1.8 35.5 0 8.2-1 17.7-6.7 24.1-5.1 5.8-14.2 6.6-17.7-.8-3.9-8.1-3.7-17.9-4.6-26.6-3-31.5-6.8-62.9-10.5-94.3-.4-3.1-2.8-5.1-5.9-5.1h-11c-4 0-5.5 3.5-4.7 6.6-1.3.6-2.2 1.9-2.3 3.8-.5 9 .6 17.8 1.8 26.7 1.3 9.6 1.5 19.4 2.2 29.1 1.3 18.9 1.9 38 4.2 56.9 1.9 15 4.7 32.2 13.6 44.8 3.7 5.2 11.6 17.1 19.6 18.3 12.9 20.5 8.5 46.5 5.6 69.4-2 15.3-3.3 30.7-5.2 46.1-2 16-5.2 31.5-8.4 47.3-5.2 25.5-7 54.8 8.2 77.3 14.7 21.7 44.3 27 66.3 13.4 36.8-22.6 33-69.3 22.7-105.4C383.2 341.7 373.9 321.5 366.9 300.7zM381.9 432.7c-7.8 21.8-30.2 37-53.4 30.4-21.1-6-28.6-29.9-29.2-49.4-.7-26.2 7.9-51.7 11.3-77.5 3.2-23.6 6-47.5 8.3-71.2 1.9-20.3 1-41.6-11.2-58.7-.5-1.1-1.2-2-2.2-2.6-1.5-1.2-3.3-1.4-4.9-.9 0 0 0 0 0 0-1.9-1.5-3.6-3.3-5.2-5.1-3-3.3-5.7-7.1-8.2-10.9-3.7-5.7-5.2-14-6.8-20.5-1.9-7.9-2.8-16-3.6-24.1-1.6-16.7-2.3-33.5-3.4-50.3-.6-8.5-.8-17-1.8-25.4-1-8.5-2.7-17-2.2-25.6 0-.6 0-1.1-.1-1.6h2.8c3.6 30.4 7.2 60.7 10.1 91.1 1.5 15.9 3.4 43.1 26 40.1 22-2.9 25.2-28.1 24.7-45.9-.4-13.8-1.6-27.6-2.1-41.4-.3-10.6-2.1-21.2-1.8-31.7 0-1.5.3-3 .5-4.4 0 0 0 0 0 0 1.7 1.6 2.9 3.5 3.8 5.6 4.2 9.5 3.9 21 4.3 31.2.3 9.4 1.1 18.7 1.4 28.1.3 10.4.9 21.4 6 30.7 3.7 6.8 11.4 12.2 19.2 9.9 6.9-2.1 11-10.2 13.6-16.3 8.1-19 7.9-39.9 8.1-60.2.1-7.7-.3-15.4-1.2-23 2.7.7 5.2 1.6 7.1 3.2 1.9 1.6 1.3 6.6 1.2 8.8-.1 4-.4 8-.4 12 0 19 0 38 .5 57.1.4 15.8-.4 31.6-7.1 46.2-3.4 7.5-8.5 14.5-13.4 21.1-2.6 3.5-5.3 6.3-9.4 7.8-3.5 1.2-7 2.2-10.3 4-.6.3-1.1.7-1.5 1.2-2.3 0-4.5 1.4-4.9 4.3-4.1 29.2.7 57.7 9.9 85.4 7.5 22.6 17.6 44.2 23.7 67.2C385.4 390.9 388.8 413.2 381.9 432.7z"/><path d="M362.6 401.8c-4.3 15.7-21.2 24.7-27.5 39.6-2.8 6.5 7.1 11.4 9.9 4.9 6.8-16.1 23.7-25 28.5-42.4C375.3 397.1 364.5 395.1 362.6 401.8zM346.6 387.8c-1.2 6.4-6 11.1-10.2 15.8-4.7 5.2-8.8 10.4-10.8 17.2-2 6.8 8.9 8.9 10.8 2.1 1.7-5.9 7-10.6 10.9-15 4.7-5.2 8.7-11 10.1-18C358.7 383 347.9 380.9 346.6 387.8zM335.9 368.3c-5.4 6.3-12.2 11.5-15.8 19.2-3 6.4 6.9 11.3 9.9 4.9 3.1-6.7 9.5-11.3 14.2-16.8C348.8 370.1 340.5 362.9 335.9 368.3z"/></svg>